{
  "accessors": [
    {
      "bufferView": 2,
      "componentType": 5126,
      "count": 250,
      "max": [
        18.0,
        18.0,
        1.0
      ],
      "min": [
        -18.0,
        -18.0,
        0.0
      ],
      "type": "VEC3"
    },
    {
      "bufferView": 2,
      "byteOffset": 3000,
      "componentType": 5126,
      "count": 250,
      "max": [
        1.0,
        1.0,
        1.0
      ],
      "min": [
        -1.0,
        -1.0,
        -1.0
      ],
      "type": "VEC3"
    },
    {
      "bufferView": 1,
      "componentType": 5126,
      "count": 250,
      "max": [
        0.48750001192092896,
        0.862500011920929
      ],
      "min": [
        0.38749998807907104,
        0.762499988079071
      ],
      "type": "VEC2"
    },
    {
      "bufferView": 0,
      "componentType": 5125,
      "count": 576,
      "type": "SCALAR"
    },
    {
      "bufferView": 2,
      "byteOffset": 6000,
      "componentType": 5126,
      "count": 4967,
      "max": [
        14.5,
        18.5,
        27.700000762939453
      ],
      "min": [
        -14.5,
        -7.150000095367432,
        0.0
      ],
      "type": "VEC3"
    },
    {
      "bufferView": 2,
      "byteOffset": 65604,
      "componentType": 5126,
      "count": 4967,
      "max": [
        1.0,
        1.0,
        1.0
      ],
      "min": [
        -1.0,
        -1.0,
        -1.0
      ],
      "type": "VEC3"
    },
    {
      "bufferView": 1,
      "byteOffset": 2000,
      "componentType": 5126,
      "count": 4967,
      "max": [
        0.9861934781074524,
        0.8670000433921814
      ],
      "min": [
        0.01659250259399414,
        0.01250004768371582
      ],
      "type": "VEC2"
    },
    {
      "bufferView": 0,
      "byteOffset": 2304,
      "componentType": 5125,
      "count": 8373,
      "type": "SCALAR"
    },
    {
      "bufferView": 2,
      "byteOffset": 125208,
      "componentType": 5126,
      "count": 1210,
      "max": [
        16.100000381469727,
        -4.0,
        6.25
      ],
      "min": [
        -16.100000381469727,
        -15.5,
        1.0
      ],
      "type": "VEC3"
    },
    {
      "bufferView": 2,
      "byteOffset": 139728,
      "componentType": 5126,
      "count": 1210,
      "max": [
        1.0,
        1.0,
        1.0
      ],
      "min": [
        -1.0,
        -1.0,
        -1.0
      ],
      "type": "VEC3"
    },
    {
      "bufferView": 1,
      "byteOffset": 41736,
      "componentType": 5126,
      "count": 1210,
      "max": [
        0.9690001010894775,
        0.8574999570846558
      ],
      "min": [
        0.0700000524520874,
        0.014207124710083008
      ],
      "type": "VEC2"
    },
    {
      "bufferView": 0,
      "byteOffset": 35796,
      "componentType": 5125,
      "count": 2160,
      "type": "SCALAR"
    },
    {
      "bufferView": 2,
      "byteOffset": 154248,
      "componentType": 5126,
      "count": 57,
      "max": [
        1.0,
        -13.5,
        3.0
      ],
      "min": [
        -1.0,
        -13.5,
        1.0
      ],
      "type": "VEC3"
    },
    {
      "bufferView": 2,
      "byteOffset": 154932,
      "componentType": 5126,
      "count": 57,
      "max": [
        0.0,
        -1.0,
        7.04981061971921e-07
      ],
      "min": [
        0.0,
        -1.0,
        -8.780600182944909e-06
      ],
      "type": "VEC3"
    },
    {
      "bufferView": 1,
      "byteOffset": 51416,
      "componentType": 5126,
      "count": 57,
      "max": [
        0.889382541179657,
        0.7898437976837158
      ],
      "min": [
        0.38938242197036743,
        0.037359416484832764
      ],
      "type": "VEC2"
    },
    {
      "bufferView": 0,
      "byteOffset": 44436,
      "componentType": 5125,
      "count": 120,
      "type": "SCALAR"
    },
    {
      "bufferView": 2,
      "byteOffset": 155616,
      "componentType": 5126,
      "count": 5006,
      "max": [
        15.0,
        17.39899444580078,
        27.472747802734375
      ],
      "min": [
        -15.0,
        -7.25,
        0.009999999776482582
      ],
      "type": "VEC3"
    },
    {
      "bufferView": 2,
      "byteOffset": 215688,
      "componentType": 5126,
      "count": 5006,
      "max": [
        1.0,
        1.0,
        1.0
      ],
      "min": [
        -1.0,
        -1.0,
        -1.0
      ],
      "type": "VEC3"
    },
    {
      "bufferView": 1,
      "byteOffset": 51872,
      "componentType": 5126,
      "count": 5006,
      "max": [
        0.805005669593811,
        0.9345057010650635
      ],
      "min": [
        0.36037224531173706,
        0.34885549545288086
      ],
      "type": "VEC2"
    },
    {
      "bufferView": 0,
      "byteOffset": 44916,
      "componentType": 5125,
      "count": 7704,
      "type": "SCALAR"
    },
    {
      "bufferView": 2,
      "byteOffset": 275760,
      "componentType": 5126,
      "count": 4675,
      "max": [
        2.1000001430511475,
        17.656362533569336,
        13.196959495544434
      ],
      "min": [
        -17.420578002929688,
        -1.8642138242721558,
        -3.0
      ],
      "type": "VEC3"
    },
    {
      "bufferView": 2,
      "byteOffset": 331860,
      "componentType": 5126,
      "count": 4675,
      "max": [
        1.0,
        1.0,
        0.9449015855789185
      ],
      "min": [
        -1.0,
        -1.0,
        -1.0
      ],
      "type": "VEC3"
    },
    {
      "bufferView": 1,
      "byteOffset": 91920,
      "componentType": 5126,
      "count": 4675,
      "max": [
        0.862500011920929,
        0.862500011920929
      ],
      "min": [
        0.38802576065063477,
        0.762499988079071
      ],
      "type": "VEC2"
    },
    {
      "bufferView": 0,
      "byteOffset": 75732,
      "componentType": 5125,
      "count": 7416,
      "type": "SCALAR"
    }
  ],
  "asset": {
    "extras": {
      "author": "MRowa (https://sketchfab.com/MRowa)",
      "license": "CC-BY-SA-4.0 (http://creativecommons.org/licenses/by-sa/4.0/)",
      "source": "https://sketchfab.com/3d-models/gourmet-factory-9beb7ecb3f644c279e947716febad967",
      "title": "Gourmet Factory"
    },
    "generator": "Sketchfab-12.66.0",
    "version": "2.0"
  },
  "bufferViews": [
    {
      "buffer": 0,
      "byteLength": 105396,
      "name": "floatBufferViews",
      "target": 34963
    },
    {
      "buffer": 0,
      "byteLength": 129320,
      "byteOffset": 105396,
      "byteStride": 8,
      "name": "floatBufferViews",
      "target": 34962
    },
    {
      "buffer": 0,
      "byteLength": 387960,
      "byteOffset": 234716,
      "byteStride": 12,
      "name": "floatBufferViews",
      "target": 34962
    }
  ],
  "buffers": [
    {
      "byteLength": 622676,
      "uri": "scene.bin"
    }
  ],
  "images": [
    {
      "uri": "textures/Placeable_baseColor.png"
    },
    {
      "uri": "textures/Placeable_metallicRoughness.png"
    },
    {
      "uri": "textures/Placeable_emissive.png"
    }
  ],
  "materials": [
    {
      "doubleSided": true,
      "emissiveFactor": [
        1.0,
        1.0,
        1.0
      ],
      "emissiveTexture": {
        "index": 2
      },
      "name": "Placeable",
      "pbrMetallicRoughness": {
        "baseColorTexture": {
          "index": 0
        },
        "metallicRoughnessTexture": {
          "index": 1
        }
      }
    }
  ],
  "meshes": [
    {
      "name": "GourmetFactory_Foundation_Placeable_0",
      "primitives": [
        {
          "attributes": {
            "NORMAL": 1,
            "POSITION": 0,
            "TEXCOORD_0": 2
          },
          "indices": 3,
          "material": 0,
          "mode": 4
        }
      ]
    },
    {
      "name": "GourmetFactory_BigBody_Placeable_0",
      "primitives": [
        {
          "attributes": {
            "NORMAL": 5,
            "POSITION": 4,
            "TEXCOORD_0": 6
          },
          "indices": 7,
          "material": 0,
          "mode": 4
        }
      ]
    },
    {
      "name": "GourmetFactory_Body_Placeable_0",
      "primitives": [
        {
          "attributes": {
            "NORMAL": 9,
            "POSITION": 8,
            "TEXCOORD_0": 10
          },
          "indices": 11,
          "material": 0,
          "mode": 4
        }
      ]
    },
    {
      "name": "GourmetFactory_Door_Placeable_0",
      "primitives": [
        {
          "attributes": {
            "NORMAL": 13,
            "POSITION": 12,
            "TEXCOORD_0": 14
          },
          "indices": 15,
          "material": 0,
          "mode": 4
        }
      ]
    },
    {
      "name": "GourmetFactory_Parts_Placeable_0",
      "primitives": [
        {
          "attributes": {
            "NORMAL": 17,
            "POSITION": 16,
            "TEXCOORD_0": 18
          },
          "indices": 19,
          "material": 0,
          "mode": 4
        }
      ]
    },
    {
      "name": "GourmetFactory_Chimney_Placeable_0",
      "primitives": [
        {
          "attributes": {
            "NORMAL": 21,
            "POSITION": 20,
            "TEXCOORD_0": 22
          },
          "indices": 23,
          "material": 0,
          "mode": 4
        }
      ]
    }
  ],
  "nodes": [
    {
      "children": [
        1
      ],
      "matrix": [
        1.0,
        0.0,
        0.0,
        0.0,
        0.0,
        2.220446049250313e-16,
        -1.0,
        0.0,
        0.0,
        1.0,
        2.220446049250313e-16,
        0.0,
        0.0,
        0.0,
        0.0,
        1.0
      ],
      "name": "Sketchfab_model"
    },
    {
      "children": [
        2
      ],
      "matrix": [
        1.0,
        0.0,
        0.0,
        0.0,
        0.0,
        0.0,
        1.0,
        0.0,
        0.0,
        -1.0,
        0.0,
        0.0,
        0.0,
        0.0,
        0.0,
        1.0
      ],
      "name": "245e3b3a93d443fbb27caae8e399c11b.fbx"
    },
    {
      "children": [
        3
      ],
      "name": "RootNode"
    },
    {
      "children": [
        4,
        6,
        8,
        10,
        12,
        14
      ],
      "matrix": [
        100.0,
        0.0,
        0.0,
        0.0,
        0.0,
        -1.629206793918314e-05,
        -99.99999999999868,
        0.0,
        0.0,
        99.99999999999868,
        -1.629206793918314e-05,
        0.0,
        0.0,
        0.0,
        0.0,
        1.0
      ],
      "name": "GourmetFactory"
    },
    {
      "children": [
        5
      ],
      "matrix": [
        1.0,
        0.0,
        0.0,
        0.0,
        0.0,
        1.0,
        -2.646977960169688e-23,
        0.0,
        0.0,
        2.646977960169688e-23,
        1.0,
        0.0,
        0.0,
        0.0,
        0.0,
        1.0
      ],
      "name": "GourmetFactory_Foundation"
    },
    {
      "mesh": 0,
      "name": "GourmetFactory_Foundation_Placeable_0"
    },
    {
      "children": [
        7
      ],
      "matrix": [
        1.0,
        0.0,
        0.0,
        0.0,
        0.0,
        1.0,
        -2.646977960169688e-23,
        0.0,
        0.0,
        2.646977960169688e-23,
        1.0,
        0.0,
        0.0,
        0.0,
        0.0,
        1.0
      ],
      "name": "GourmetFactory_BigBody"
    },
    {
      "mesh": 1,
      "name": "GourmetFactory_BigBody_Placeable_0"
    },
    {
      "children": [
        9
      ],
      "matrix": [
        1.0,
        0.0,
        0.0,
        0.0,
        0.0,
        1.0,
        -2.646977960169688e-23,
        0.0,
        0.0,
        2.646977960169688e-23,
        1.0,
        0.0,
        0.0,
        0.0,
        0.0,
        1.0
      ],
      "name": "GourmetFactory_Body"
    },
    {
      "mesh": 2,
      "name": "GourmetFactory_Body_Placeable_0"
    },
    {
      "children": [
        11
      ],
      "matrix": [
        1.0,
        0.0,
        0.0,
        0.0,
        0.0,
        1.0,
        -2.646977960169688e-23,
        0.0,
        0.0,
        2.646977960169688e-23,
        1.0,
        0.0,
        0.0,
        0.0,
        0.0,
        1.0
      ],
      "name": "GourmetFactory_Door"
    },
    {
      "mesh": 3,
      "name": "GourmetFactory_Door_Placeable_0"
    },
    {
      "children": [
        13
      ],
      "matrix": [
        1.0,
        0.0,
        0.0,
        0.0,
        0.0,
        1.0,
        -2.646977960169688e-23,
        0.0,
        0.0,
        2.646977960169688e-23,
        1.0,
        0.0,
        0.0,
        0.0,
        0.0,
        1.0
      ],
      "name": "GourmetFactory_Parts"
    },
    {
      "mesh": 4,
      "name": "GourmetFactory_Parts_Placeable_0"
    },
    {
      "children": [
        15
      ],
      "matrix": [
        0.7071067657322258,
        0.7071066280534686,
        0.0,
        0.0,
        -0.7071066280534686,
        0.7071067657322258,
        -1.323488980084844e-23,
        0.0,
        -9.35848053097268e-24,
        9.358482353136293e-24,
        1.0,
        0.0,
        11.000007629394531,
        14.999969482421875,
        13.0,
        1.0
      ],
      "name": "GourmetFactory_Chimney"
    },
    {
      "mesh": 5,
      "name": "GourmetFactory_Chimney_Placeable_0"
    }
  ],
  "samplers": [
    {
      "magFilter": 9728,
      "minFilter": 9728,
      "wrapS": 10497,
      "wrapT": 10497
    }
  ],
  "scene": 0,
  "scenes": [
    {
      "name": "Sketchfab_Scene",
      "nodes": [
        0
      ]
    }
  ],
  "textures": [
    {
      "sampler": 0,
      "source": 0
    },
    {
      "sampler": 0,
      "source": 1
    },
    {
      "sampler": 0,
      "source": 2
    }
  ]
}
