{
  "accessors": [
    {
      "bufferView": 2,
      "componentType": 5126,
      "count": 204,
      "max": [
        1.0362050533294678,
        2.0832631587982178,
        1.0362050533294678
      ],
      "min": [
        -1.0362050533294678,
        0.8752484917640686,
        -1.0362050533294678
      ],
      "type": "VEC3"
    },
    {
      "bufferView": 2,
      "byteOffset": 2448,
      "componentType": 5126,
      "count": 204,
      "max": [
        1.0,
        0.03513021394610405,
        1.0
      ],
      "min": [
        -1.0,
        -1.3596032886198373e-06,
        -1.0
      ],
      "type": "VEC3"
    },
    {
      "bufferView": 3,
      "componentType": 5126,
      "count": 204,
      "max": [
        1.0,
        0.0,
        -0.0,
        -1.0
      ],
      "min": [
        1.0,
        0.0,
        -0.0,
        -1.0
      ],
      "type": "VEC4"
    },
    {
      "bufferView": 1,
      "componentType": 5126,
      "count": 204,
      "max": [
        0.0,
        0.0
      ],
      "min": [
        0.0,
        0.0
      ],
      "type": "VEC2"
    },
    {
      "bufferView": 1,
      "byteOffset": 1632,
      "componentType": 5126,
      "count": 204,
      "max": [
        0.0,
        0.0
      ],
      "min": [
        0.0,
        0.0
      ],
      "type": "VEC2"
    },
    {
      "bufferView": 1,
      "byteOffset": 3264,
      "componentType": 5126,
      "count": 204,
      "max": [
        0.0,
        0.0
      ],
      "min": [
        0.0,
        0.0
      ],
      "type": "VEC2"
    },
    {
      "bufferView": 1,
      "byteOffset": 4896,
      "componentType": 5126,
      "count": 204,
      "max": [
        0.0,
        0.0
      ],
      "min": [
        0.0,
        0.0
      ],
      "type": "VEC2"
    },
    {
      "bufferView": 0,
      "componentType": 5125,
      "count": 648,
      "type": "SCALAR"
    },
    {
      "bufferView": 2,
      "byteOffset": 4896,
      "componentType": 5126,
      "count": 24,
      "max": [
        0.1988518238067627,
        1.5054594278335571,
        0.19999365508556366
      ],
      "min": [
        -0.19885168969631195,
        1.3704510927200317,
        -0.19999362528324127
      ],
      "type": "VEC3"
    },
    {
      "bufferView": 2,
      "byteOffset": 5184,
      "componentType": 5126,
      "count": 24,
      "max": [
        0.9997619390487671,
        3.298420665487356e-07,
        0.9997944235801697
      ],
      "min": [
        -0.9997619390487671,
        -2.682726005787117e-07,
        -0.9997944831848145
      ],
      "type": "VEC3"
    },
    {
      "bufferView": 3,
      "byteOffset": 3264,
      "componentType": 5126,
      "count": 24,
      "max": [
        1.0,
        0.0,
        -0.0,
        -1.0
      ],
      "min": [
        1.0,
        0.0,
        -0.0,
        -1.0
      ],
      "type": "VEC4"
    },
    {
      "bufferView": 1,
      "byteOffset": 6528,
      "componentType": 5126,
      "count": 24,
      "max": [
        0.0,
        0.0
      ],
      "min": [
        0.0,
        0.0
      ],
      "type": "VEC2"
    },
    {
      "bufferView": 1,
      "byteOffset": 6720,
      "componentType": 5126,
      "count": 24,
      "max": [
        0.0,
        0.0
      ],
      "min": [
        0.0,
        0.0
      ],
      "type": "VEC2"
    },
    {
      "bufferView": 1,
      "byteOffset": 6912,
      "componentType": 5126,
      "count": 24,
      "max": [
        0.0,
        0.0
      ],
      "min": [
        0.0,
        0.0
      ],
      "type": "VEC2"
    },
    {
      "bufferView": 1,
      "byteOffset": 7104,
      "componentType": 5126,
      "count": 24,
      "max": [
        0.0,
        0.0
      ],
      "min": [
        0.0,
        0.0
      ],
      "type": "VEC2"
    },
    {
      "bufferView": 0,
      "byteOffset": 2592,
      "componentType": 5125,
      "count": 48,
      "type": "SCALAR"
    },
    {
      "bufferView": 2,
      "byteOffset": 5472,
      "componentType": 5126,
      "count": 24,
      "max": [
        0.2499728798866272,
        0.635007381439209,
        0.251187801361084
      ],
      "min": [
        -0.2499728500843048,
        0.5806143283843994,
        -0.251187801361084
      ],
      "type": "VEC3"
    },
    {
      "bufferView": 2,
      "byteOffset": 5760,
      "componentType": 5126,
      "count": 24,
      "max": [
        1.0,
        2.403531595973618e-07,
        1.0
      ],
      "min": [
        -1.0,
        -2.403532448624901e-07,
        -1.0
      ],
      "type": "VEC3"
    },
    {
      "bufferView": 1,
      "byteOffset": 7296,
      "componentType": 5126,
      "count": 24,
      "max": [
        0.0,
        0.0
      ],
      "min": [
        0.0,
        0.0
      ],
      "type": "VEC2"
    },
    {
      "bufferView": 0,
      "byteOffset": 2784,
      "componentType": 5125,
      "count": 48,
      "type": "SCALAR"
    },
    {
      "bufferView": 2,
      "byteOffset": 6048,
      "componentType": 5126,
      "count": 5263,
      "max": [
        1.0362050533294678,
        2.7937755584716797,
        1.0362050533294678
      ],
      "min": [
        -1.0362050533294678,
        2.7446795058949647e-08,
        -1.0362050533294678
      ],
      "type": "VEC3"
    },
    {
      "bufferView": 2,
      "byteOffset": 69204,
      "componentType": 5126,
      "count": 5263,
      "max": [
        1.0,
        1.0,
        1.0
      ],
      "min": [
        -1.0,
        -1.0,
        -1.0
      ],
      "type": "VEC3"
    },
    {
      "bufferView": 1,
      "byteOffset": 7488,
      "componentType": 5126,
      "count": 5263,
      "max": [
        0.0,
        0.0
      ],
      "min": [
        0.0,
        0.0
      ],
      "type": "VEC2"
    },
    {
      "bufferView": 0,
      "byteOffset": 2976,
      "componentType": 5125,
      "count": 14970,
      "type": "SCALAR"
    },
    {
      "bufferView": 2,
      "byteOffset": 132360,
      "componentType": 5126,
      "count": 282,
      "max": [
        0.8888545632362366,
        2.752406597137451,
        0.8889057040214539
      ],
      "min": [
        -0.8933101892471313,
        6.021702603220547e-08,
        -0.8907545208930969
      ],
      "type": "VEC3"
    },
    {
      "bufferView": 2,
      "byteOffset": 135744,
      "componentType": 5126,
      "count": 282,
      "max": [
        0.9999064207077026,
        0.9999991059303284,
        1.0
      ],
      "min": [
        -0.9996204972267151,
        -0.13838647305965424,
        -1.0
      ],
      "type": "VEC3"
    },
    {
      "bufferView": 1,
      "byteOffset": 49592,
      "componentType": 5126,
      "count": 282,
      "max": [
        0.0,
        0.0
      ],
      "min": [
        0.0,
        0.0
      ],
      "type": "VEC2"
    },
    {
      "bufferView": 0,
      "byteOffset": 62856,
      "componentType": 5125,
      "count": 828,
      "type": "SCALAR"
    },
    {
      "bufferView": 2,
      "byteOffset": 139128,
      "componentType": 5126,
      "count": 2430,
      "max": [
        0.8543477058410645,
        0.5170167684555054,
        0.611470639705658
      ],
      "min": [
        -0.5786249041557312,
        1.3841275858794688e-07,
        -0.5993682146072388
      ],
      "type": "VEC3"
    },
    {
      "bufferView": 2,
      "byteOffset": 168288,
      "componentType": 5126,
      "count": 2430,
      "max": [
        0.9537487626075745,
        0.9930471181869507,
        0.9546496868133545
      ],
      "min": [
        -0.959119439125061,
        -0.9922985434532166,
        -0.9598813652992249
      ],
      "type": "VEC3"
    },
    {
      "bufferView": 1,
      "byteOffset": 51848,
      "componentType": 5126,
      "count": 2430,
      "max": [
        0.0,
        0.0
      ],
      "min": [
        0.0,
        0.0
      ],
      "type": "VEC2"
    },
    {
      "bufferView": 0,
      "byteOffset": 66168,
      "componentType": 5125,
      "count": 7308,
      "type": "SCALAR"
    },
    {
      "bufferView": 2,
      "byteOffset": 197448,
      "componentType": 5126,
      "count": 85,
      "max": [
        0.27445971965789795,
        2.8275160789489746,
        0.27590104937553406
      ],
      "min": [
        -0.27445971965789795,
        0.385090172290802,
        -0.27590104937553406
      ],
      "type": "VEC3"
    },
    {
      "bufferView": 2,
      "byteOffset": 198468,
      "componentType": 5126,
      "count": 85,
      "max": [
        0.9994741082191467,
        0.9999999403953552,
        0.9982374906539917
      ],
      "min": [
        -0.9983588457107544,
        -0.3270304203033447,
        -0.9971581101417542
      ],
      "type": "VEC3"
    },
    {
      "bufferView": 1,
      "byteOffset": 71288,
      "componentType": 5126,
      "count": 85,
      "max": [
        0.0,
        0.0
      ],
      "min": [
        0.0,
        0.0
      ],
      "type": "VEC2"
    },
    {
      "bufferView": 0,
      "byteOffset": 95400,
      "componentType": 5125,
      "count": 240,
      "type": "SCALAR"
    },
    {
      "bufferView": 2,
      "byteOffset": 199488,
      "componentType": 5126,
      "count": 328,
      "max": [
        1.0183467864990234,
        2.7937755584716797,
        1.0184054374694824
      ],
      "min": [
        -1.023451566696167,
        0.27163589000701904,
        -1.0205235481262207
      ],
      "type": "VEC3"
    },
    {
      "bufferView": 2,
      "byteOffset": 203424,
      "componentType": 5126,
      "count": 328,
      "max": [
        1.0,
        1.0,
        1.0
      ],
      "min": [
        -1.0,
        -1.0,
        -1.0
      ],
      "type": "VEC3"
    },
    {
      "bufferView": 1,
      "byteOffset": 71968,
      "componentType": 5126,
      "count": 328,
      "max": [
        0.0,
        0.0
      ],
      "min": [
        0.0,
        0.0
      ],
      "type": "VEC2"
    },
    {
      "bufferView": 0,
      "byteOffset": 96360,
      "componentType": 5125,
      "count": 822,
      "type": "SCALAR"
    },
    {
      "bufferView": 2,
      "byteOffset": 207360,
      "componentType": 5126,
      "count": 24,
      "max": [
        0.4023984670639038,
        0.06755642592906952,
        0.39896711707115173
      ],
      "min": [
        -0.4023984670639038,
        0.06266703456640244,
        -0.39896711707115173
      ],
      "type": "VEC3"
    },
    {
      "bufferView": 2,
      "byteOffset": 207648,
      "componentType": 5126,
      "count": 24,
      "max": [
        0.14417892694473267,
        0.9999504089355469,
        0.15033239126205444
      ],
      "min": [
        -0.14417901635169983,
        0.9839750528335571,
        -0.1503322273492813
      ],
      "type": "VEC3"
    },
    {
      "bufferView": 1,
      "byteOffset": 74592,
      "componentType": 5126,
      "count": 24,
      "max": [
        0.0,
        0.0
      ],
      "min": [
        0.0,
        0.0
      ],
      "type": "VEC2"
    },
    {
      "bufferView": 0,
      "byteOffset": 99648,
      "componentType": 5125,
      "count": 48,
      "type": "SCALAR"
    },
    {
      "bufferView": 2,
      "byteOffset": 207936,
      "componentType": 5126,
      "count": 264,
      "max": [
        0.7507858872413635,
        2.778768301010132,
        0.7502699494361877
      ],
      "min": [
        -0.745886504650116,
        0.19972068071365356,
        -0.7547804713249207
      ],
      "type": "VEC3"
    },
    {
      "bufferView": 2,
      "byteOffset": 211104,
      "componentType": 5126,
      "count": 264,
      "max": [
        0.9765028953552246,
        0.9999991059303284,
        0.9771589636802673
      ],
      "min": [
        -0.9765031933784485,
        -0.5948173403739929,
        -0.9772750735282898
      ],
      "type": "VEC3"
    },
    {
      "bufferView": 1,
      "byteOffset": 74784,
      "componentType": 5126,
      "count": 264,
      "max": [
        0.0,
        0.0
      ],
      "min": [
        0.0,
        0.0
      ],
      "type": "VEC2"
    },
    {
      "bufferView": 0,
      "byteOffset": 99840,
      "componentType": 5125,
      "count": 624,
      "type": "SCALAR"
    }
  ],
  "asset": {
    "extras": {
      "author": "vandoughairyhunx (https://sketchfab.com/vandoughairyhunx)",
      "license": "CC-BY-4.0 (http://creativecommons.org/licenses/by/4.0/)",
      "source": "https://sketchfab.com/3d-models/sci-fi-communication-tower-1c5d5c3294c94b038c23d3624c0b6e23",
      "title": "Sci-fi Communication Tower"
    },
    "generator": "Sketchfab-15.87.0",
    "version": "2.0"
  },
  "bufferViews": [
    {
      "buffer": 0,
      "byteLength": 102336,
      "name": "floatBufferViews",
      "target": 34963
    },
    {
      "buffer": 0,
      "byteLength": 76896,
      "byteOffset": 102336,
      "byteStride": 8,
      "name": "floatBufferViews",
      "target": 34962
    },
    {
      "buffer": 0,
      "byteLength": 214272,
      "byteOffset": 179232,
      "byteStride": 12,
      "name": "floatBufferViews",
      "target": 34962
    },
    {
      "buffer": 0,
      "byteLength": 3648,
      "byteOffset": 393504,
      "byteStride": 16,
      "name": "floatBufferViews",
      "target": 34962
    }
  ],
  "buffers": [
    {
      "byteLength": 397152,
      "uri": "scene.bin"
    }
  ],
  "images": [
    {
      "uri": "textures/screen.001_baseColor.png"
    },
    {
      "uri": "textures/screen.001_metallicRoughness.png"
    },
    {
      "uri": "textures/screen.001_normal.png"
    }
  ],
  "materials": [
    {
      "doubleSided": true,
      "name": "Pointiness_Metal"
    },
    {
      "doubleSided": true,
      "name": "Advanced_Hologram_Screen_Green"
    },
    {
      "doubleSided": true,
      "name": "Blue_Car_Paint",
      "pbrMetallicRoughness": {
        "roughnessFactor": 0.3
      }
    },
    {
      "doubleSided": true,
      "name": "Sandblasted_black_metal"
    },
    {
      "doubleSided": true,
      "name": "Advanced_Hologram_Screen_Glass_Red"
    },
    {
      "doubleSided": true,
      "name": "Sparkle_Metal_blue"
    },
    {
      "doubleSided": true,
      "name": "screen.001",
      "normalTexture": {
        "index": 2
      },
      "pbrMetallicRoughness": {
        "baseColorTexture": {
          "index": 0
        },
        "metallicRoughnessTexture": {
          "index": 1
        }
      }
    },
    {
      "doubleSided": true,
      "name": "Advanced_Hologram_Screen_Glass"
    },
    {
      "doubleSided": true,
      "name": "Sparkle_Metal_green"
    }
  ],
  "meshes": [
    {
      "name": "Object_0",
      "primitives": [
        {
          "attributes": {
            "NORMAL": 1,
            "POSITION": 0,
            "TANGENT": 2,
            "TEXCOORD_0": 3,
            "TEXCOORD_1": 4,
            "TEXCOORD_2": 5,
            "TEXCOORD_3": 6
          },
          "indices": 7,
          "material": 6,
          "mode": 4
        }
      ]
    },
    {
      "name": "Object_1",
      "primitives": [
        {
          "attributes": {
            "NORMAL": 9,
            "POSITION": 8,
            "TANGENT": 10,
            "TEXCOORD_0": 11,
            "TEXCOORD_1": 12,
            "TEXCOORD_2": 13,
            "TEXCOORD_3": 14
          },
          "indices": 15,
          "material": 6,
          "mode": 4
        }
      ]
    },
    {
      "name": "Object_2",
      "primitives": [
        {
          "attributes": {
            "NORMAL": 17,
            "POSITION": 16,
            "TEXCOORD_0": 18
          },
          "indices": 19,
          "material": 8,
          "mode": 4
        }
      ]
    },
    {
      "name": "Object_3",
      "primitives": [
        {
          "attributes": {
            "NORMAL": 21,
            "POSITION": 20,
            "TEXCOORD_0": 22
          },
          "indices": 23,
          "material": 0,
          "mode": 4
        }
      ]
    },
    {
      "name": "Object_4",
      "primitives": [
        {
          "attributes": {
            "NORMAL": 25,
            "POSITION": 24,
            "TEXCOORD_0": 26
          },
          "indices": 27,
          "material": 2,
          "mode": 4
        }
      ]
    },
    {
      "name": "Object_5",
      "primitives": [
        {
          "attributes": {
            "NORMAL": 29,
            "POSITION": 28,
            "TEXCOORD_0": 30
          },
          "indices": 31,
          "material": 3,
          "mode": 4
        }
      ]
    },
    {
      "name": "Object_6",
      "primitives": [
        {
          "attributes": {
            "NORMAL": 33,
            "POSITION": 32,
            "TEXCOORD_0": 34
          },
          "indices": 35,
          "material": 4,
          "mode": 4
        }
      ]
    },
    {
      "name": "Object_7",
      "primitives": [
        {
          "attributes": {
            "NORMAL": 37,
            "POSITION": 36,
            "TEXCOORD_0": 38
          },
          "indices": 39,
          "material": 5,
          "mode": 4
        }
      ]
    },
    {
      "name": "Object_8",
      "primitives": [
        {
          "attributes": {
            "NORMAL": 41,
            "POSITION": 40,
            "TEXCOORD_0": 42
          },
          "indices": 43,
          "material": 7,
          "mode": 4
        }
      ]
    },
    {
      "name": "Object_9",
      "primitives": [
        {
          "attributes": {
            "NORMAL": 45,
            "POSITION": 44,
            "TEXCOORD_0": 46
          },
          "indices": 47,
          "material": 1,
          "mode": 4
        }
      ]
    }
  ],
  "nodes": [
    {
      "children": [
        1
      ],
      "matrix": [
        1.0,
        0.0,
        0.0,
        0.0,
        0.0,
        2.220446049250313e-16,
        -1.0,
        0.0,
        0.0,
        1.0,
        2.220446049250313e-16,
        0.0,
        0.0,
        0.0,
        0.0,
        1.0
      ],
      "name": "Sketchfab_model"
    },
    {
      "children": [
        2
      ],
      "name": "root"
    },
    {
      "children": [
        3
      ],
      "matrix": [
        1.0,
        0.0,
        0.0,
        0.0,
        0.0,
        2.220446049250313e-16,
        1.0,
        0.0,
        0.0,
        -1.0,
        2.220446049250313e-16,
        0.0,
        0.0,
        0.0,
        0.0,
        1.0
      ],
      "name": "GLTF_SceneRootNode"
    },
    {
      "children": [
        4,
        5,
        6,
        7,
        8,
        9,
        10,
        11,
        12,
        13
      ],
      "name": "CommunicationTower_2"
    },
    {
      "mesh": 0,
      "name": "Object_4"
    },
    {
      "mesh": 1,
      "name": "Object_5"
    },
    {
      "mesh": 2,
      "name": "Object_6"
    },
    {
      "mesh": 3,
      "name": "Object_7"
    },
    {
      "mesh": 4,
      "name": "Object_8"
    },
    {
      "mesh": 5,
      "name": "Object_9"
    },
    {
      "mesh": 6,
      "name": "Object_10"
    },
    {
      "mesh": 7,
      "name": "Object_11"
    },
    {
      "mesh": 8,
      "name": "Object_12"
    },
    {
      "mesh": 9,
      "name": "Object_13"
    }
  ],
  "samplers": [
    {
      "magFilter": 9729,
      "minFilter": 9987,
      "wrapS": 10497,
      "wrapT": 10497
    }
  ],
  "scene": 0,
  "scenes": [
    {
      "name": "Sketchfab_Scene",
      "nodes": [
        0
      ]
    }
  ],
  "textures": [
    {
      "sampler": 0,
      "source": 0
    },
    {
      "sampler": 0,
      "source": 1
    },
    {
      "sampler": 0,
      "source": 2
    }
  ]
}
