{
  "accessors": [
    {
      "bufferView": 2,
      "componentType": 5126,
      "count": 204,
      "max": [
        0.7391982078552246,
        5.992472171783447,
        0.7389161586761475
      ],
      "min": [
        -0.7387857437133789,
        0.5447818040847778,
        -0.7391797304153442
      ],
      "type": "VEC3"
    },
    {
      "bufferView": 2,
      "byteOffset": 2448,
      "componentType": 5126,
      "count": 204,
      "max": [
        1.0,
        0.99983149766922,
        1.0
      ],
      "min": [
        -1.0,
        -0.99983149766922,
        -1.0
      ],
      "type": "VEC3"
    },
    {
      "bufferView": 1,
      "componentType": 5126,
      "count": 204,
      "max": [
        0.8609872460365295,
        0.848605751991272
      ],
      "min": [
        0.0018852782668545842,
        0.11927541345357895
      ],
      "type": "VEC2"
    },
    {
      "bufferView": 0,
      "componentType": 5125,
      "count": 390,
      "type": "SCALAR"
    },
    {
      "bufferView": 2,
      "byteOffset": 4896,
      "componentType": 5126,
      "count": 923,
      "max": [
        0.75,
        6.253889560699463,
        0.75
      ],
      "min": [
        -0.75,
        0.5257753729820251,
        -0.75
      ],
      "type": "VEC3"
    },
    {
      "bufferView": 2,
      "byteOffset": 15972,
      "componentType": 5126,
      "count": 923,
      "max": [
        1.0,
        1.0,
        1.0
      ],
      "min": [
        -1.0,
        -1.0,
        -1.0
      ],
      "type": "VEC3"
    },
    {
      "bufferView": 3,
      "componentType": 5126,
      "count": 923,
      "max": [
        1.0,
        0.41798365116119385,
        1.0,
        1.0
      ],
      "min": [
        -0.9887195229530334,
        -0.4159332811832428,
        -1.0,
        1.0
      ],
      "type": "VEC4"
    },
    {
      "bufferView": 1,
      "byteOffset": 1632,
      "componentType": 5126,
      "count": 923,
      "max": [
        1.032334327697754,
        0.998008131980896
      ],
      "min": [
        0.0018258931813761592,
        0.001991946017369628
      ],
      "type": "VEC2"
    },
    {
      "bufferView": 0,
      "byteOffset": 1560,
      "componentType": 5125,
      "count": 2520,
      "type": "SCALAR"
    }
  ],
  "asset": {
    "extras": {
      "author": "Nick.Amalin (https://sketchfab.com/Nick.Amalin)",
      "license": "CC-BY-4.0 (http://creativecommons.org/licenses/by/4.0/)",
      "source": "https://sketchfab.com/3d-models/medieval-sci-fi-pillar-60c1b1f74df24898a54968ec3008fc63",
      "title": "Medieval Sci-fi Pillar"
    },
    "generator": "Sketchfab-12.68.0",
    "version": "2.0"
  },
  "bufferViews": [
    {
      "buffer": 0,
      "byteLength": 11640,
      "name": "floatBufferViews",
      "target": 34963
    },
    {
      "buffer": 0,
      "byteLength": 9016,
      "byteOffset": 11640,
      "byteStride": 8,
      "name": "floatBufferViews",
      "target": 34962
    },
    {
      "buffer": 0,
      "byteLength": 27048,
      "byteOffset": 20656,
      "byteStride": 12,
      "name": "floatBufferViews",
      "target": 34962
    },
    {
      "buffer": 0,
      "byteLength": 14768,
      "byteOffset": 47704,
      "byteStride": 16,
      "name": "floatBufferViews",
      "target": 34962
    }
  ],
  "buffers": [
    {
      "byteLength": 62472,
      "uri": "scene.bin"
    }
  ],
  "images": [
    {
      "uri": "textures/Metaltexture01_metallicRoughness.png"
    },
    {
      "uri": "textures/Metaltexture01_normal.png"
    }
  ],
  "materials": [
    {
      "doubleSided": true,
      "emissiveFactor": [
        0.5804360513444462,
        1.0,
        1.0
      ],
      "name": "Blue_neon",
      "pbrMetallicRoughness": {
        "baseColorFactor": [
          0.446,
          1.0,
          1.0,
          1.0
        ],
        "metallicFactor": 0.0,
        "roughnessFactor": 0.6
      }
    },
    {
      "doubleSided": true,
      "name": "Metaltexture01",
      "normalTexture": {
        "index": 1
      },
      "pbrMetallicRoughness": {
        "baseColorFactor": [
          0.6198863636,
          0.6198863636,
          0.6198863636,
          1.0
        ],
        "metallicRoughnessTexture": {
          "index": 0
        }
      }
    }
  ],
  "meshes": [
    {
      "name": "pCylinder4_Blue_neon_0",
      "primitives": [
        {
          "attributes": {
            "NORMAL": 1,
            "POSITION": 0,
            "TEXCOORD_0": 2
          },
          "indices": 3,
          "material": 0,
          "mode": 4
        }
      ]
    },
    {
      "name": "pCylinder4_Metaltexture01_0",
      "primitives": [
        {
          "attributes": {
            "NORMAL": 5,
            "POSITION": 4,
            "TANGENT": 6,
            "TEXCOORD_0": 7
          },
          "indices": 8,
          "material": 1,
          "mode": 4
        }
      ]
    }
  ],
  "nodes": [
    {
      "children": [
        1
      ],
      "matrix": [
        1.0,
        0.0,
        0.0,
        0.0,
        0.0,
        2.220446049250313e-16,
        -1.0,
        0.0,
        0.0,
        1.0,
        2.220446049250313e-16,
        0.0,
        0.0,
        0.0,
        0.0,
        1.0
      ],
      "name": "Sketchfab_model"
    },
    {
      "children": [
        2
      ],
      "matrix": [
        1.0,
        0.0,
        0.0,
        0.0,
        0.0,
        0.0,
        1.0,
        0.0,
        0.0,
        -1.0,
        0.0,
        0.0,
        0.0,
        0.0,
        0.0,
        1.0
      ],
      "name": "b68a21184c04474ebd1c42b059ca8599.fbx"
    },
    {
      "children": [
        3
      ],
      "name": "RootNode"
    },
    {
      "children": [
        4,
        5
      ],
      "matrix": [
        1.0,
        0.0,
        0.0,
        0.0,
        0.0,
        1.0,
        0.0,
        0.0,
        0.0,
        0.0,
        1.0,
        0.0,
        -2.103457450866699,
        0.0,
        0.5356271266937256,
        1.0
      ],
      "name": "pCylinder4"
    },
    {
      "mesh": 0,
      "name": "pCylinder4_Blue_neon_0"
    },
    {
      "mesh": 1,
      "name": "pCylinder4_Metaltexture01_0"
    }
  ],
  "samplers": [
    {
      "magFilter": 9729,
      "minFilter": 9987,
      "wrapS": 10497,
      "wrapT": 10497
    }
  ],
  "scene": 0,
  "scenes": [
    {
      "name": "Sketchfab_Scene",
      "nodes": [
        0
      ]
    }
  ],
  "textures": [
    {
      "sampler": 0,
      "source": 0
    },
    {
      "sampler": 0,
      "source": 1
    }
  ]
}
