{
  "accessors": [
    {
      "bufferView": 2,
      "componentType": 5126,
      "count": 142,
      "max": [
        10.0,
        10.0,
        1.0
      ],
      "min": [
        -10.0,
        -18.0,
        0.0
      ],
      "type": "VEC3"
    },
    {
      "bufferView": 2,
      "byteOffset": 1704,
      "componentType": 5126,
      "count": 142,
      "max": [
        1.0,
        1.0,
        1.0
      ],
      "min": [
        -1.0,
        -1.0,
        -1.0
      ],
      "type": "VEC3"
    },
    {
      "bufferView": 1,
      "componentType": 5126,
      "count": 142,
      "max": [
        0.8534091114997864,
        0.862500011920929
      ],
      "min": [
        0.38749998807907104,
        0.762499988079071
      ],
      "type": "VEC2"
    },
    {
      "bufferView": 0,
      "componentType": 5125,
      "count": 264,
      "type": "SCALAR"
    },
    {
      "bufferView": 2,
      "byteOffset": 3408,
      "componentType": 5126,
      "count": 1876,
      "max": [
        8.300000190734863,
        8.300000190734863,
        9.5
      ],
      "min": [
        -8.300000190734863,
        -2.0999999046325684,
        1.0
      ],
      "type": "VEC3"
    },
    {
      "bufferView": 2,
      "byteOffset": 25920,
      "componentType": 5126,
      "count": 1876,
      "max": [
        1.0,
        1.0,
        1.0
      ],
      "min": [
        -1.0,
        -1.0,
        -1.0
      ],
      "type": "VEC3"
    },
    {
      "bufferView": 1,
      "byteOffset": 1136,
      "componentType": 5126,
      "count": 1876,
      "max": [
        0.966096818447113,
        0.8625000715255737
      ],
      "min": [
        0.3883938789367676,
        0.013541936874389648
      ],
      "type": "VEC2"
    },
    {
      "bufferView": 0,
      "byteOffset": 1056,
      "componentType": 5125,
      "count": 3096,
      "type": "SCALAR"
    },
    {
      "bufferView": 2,
      "byteOffset": 48432,
      "componentType": 5126,
      "count": 2985,
      "max": [
        5.75,
        -1.0,
        8.355454444885254
      ],
      "min": [
        -5.75,
        -17.5,
        1.0
      ],
      "type": "VEC3"
    },
    {
      "bufferView": 2,
      "byteOffset": 84252,
      "componentType": 5126,
      "count": 2985,
      "max": [
        1.0,
        1.0,
        1.0
      ],
      "min": [
        -1.0,
        -1.0,
        -1.0
      ],
      "type": "VEC3"
    },
    {
      "bufferView": 1,
      "byteOffset": 16144,
      "componentType": 5126,
      "count": 2985,
      "max": [
        0.9728519916534424,
        0.862500011920929
      ],
      "min": [
        0.38749998807907104,
        0.026327133178710938
      ],
      "type": "VEC2"
    },
    {
      "bufferView": 0,
      "byteOffset": 13440,
      "componentType": 5125,
      "count": 5328,
      "type": "SCALAR"
    },
    {
      "bufferView": 2,
      "byteOffset": 120072,
      "componentType": 5126,
      "count": 95,
      "max": [
        1.9745429754257202,
        -16.0,
        4.5
      ],
      "min": [
        -1.9745429754257202,
        -16.0,
        1.5
      ],
      "type": "VEC3"
    },
    {
      "bufferView": 2,
      "byteOffset": 121212,
      "componentType": 5126,
      "count": 95,
      "max": [
        0.0,
        -1.0,
        3.535493817707902e-07
      ],
      "min": [
        0.0,
        -1.0,
        -3.0342198442667723e-06
      ],
      "type": "VEC3"
    },
    {
      "bufferView": 1,
      "byteOffset": 40024,
      "componentType": 5126,
      "count": 95,
      "max": [
        0.8574355244636536,
        0.987500011920929
      ],
      "min": [
        0.38749998807907104,
        0.7658332586288452
      ],
      "type": "VEC2"
    },
    {
      "bufferView": 0,
      "byteOffset": 34752,
      "componentType": 5125,
      "count": 288,
      "type": "SCALAR"
    },
    {
      "bufferView": 2,
      "byteOffset": 122352,
      "componentType": 5126,
      "count": 192,
      "max": [
        5.5,
        -1.0999999046325684,
        2.5
      ],
      "min": [
        -5.5,
        -3.0,
        1.0
      ],
      "type": "VEC3"
    },
    {
      "bufferView": 2,
      "byteOffset": 124656,
      "componentType": 5126,
      "count": 192,
      "max": [
        1.0,
        1.0,
        0.7071068286895752
      ],
      "min": [
        -1.0,
        -1.0,
        0.0
      ],
      "type": "VEC3"
    },
    {
      "bufferView": 1,
      "byteOffset": 40784,
      "componentType": 5126,
      "count": 192,
      "max": [
        0.41509461402893066,
        0.782374918460846
      ],
      "min": [
        0.4110855460166931,
        0.7783999443054199
      ],
      "type": "VEC2"
    },
    {
      "bufferView": 0,
      "byteOffset": 35904,
      "componentType": 5125,
      "count": 288,
      "type": "SCALAR"
    },
    {
      "bufferView": 2,
      "byteOffset": 126960,
      "componentType": 5126,
      "count": 939,
      "max": [
        3.279240608215332,
        7.423330307006836,
        12.125
      ],
      "min": [
        -3.279240608215332,
        -2.624999761581421,
        6.5
      ],
      "type": "VEC3"
    },
    {
      "bufferView": 2,
      "byteOffset": 138228,
      "componentType": 5126,
      "count": 939,
      "max": [
        1.0,
        1.0,
        1.0
      ],
      "min": [
        -1.0,
        -1.0,
        -1.0
      ],
      "type": "VEC3"
    },
    {
      "bufferView": 1,
      "byteOffset": 42320,
      "componentType": 5126,
      "count": 939,
      "max": [
        0.8028287887573242,
        0.815882682800293
      ],
      "min": [
        0.042020320892333984,
        0.12838244438171387
      ],
      "type": "VEC2"
    },
    {
      "bufferView": 0,
      "byteOffset": 37056,
      "componentType": 5125,
      "count": 1422,
      "type": "SCALAR"
    },
    {
      "bufferView": 2,
      "byteOffset": 149496,
      "componentType": 5126,
      "count": 412,
      "max": [
        1.8716285228729248,
        8.092388153076172,
        13.00236988067627
      ],
      "min": [
        -1.8716285228729248,
        7.352619647979736,
        8.0
      ],
      "type": "VEC3"
    },
    {
      "bufferView": 2,
      "byteOffset": 154440,
      "componentType": 5126,
      "count": 412,
      "max": [
        1.0,
        1.0,
        1.0
      ],
      "min": [
        -1.0,
        -1.0,
        -1.0
      ],
      "type": "VEC3"
    },
    {
      "bufferView": 1,
      "byteOffset": 49832,
      "componentType": 5126,
      "count": 412,
      "max": [
        0.802828848361969,
        0.792675256729126
      ],
      "min": [
        0.42782872915267944,
        0.754734992980957
      ],
      "type": "VEC2"
    },
    {
      "bufferView": 0,
      "byteOffset": 42744,
      "componentType": 5125,
      "count": 672,
      "type": "SCALAR"
    }
  ],
  "asset": {
    "extras": {
      "author": "MRowa (https://sketchfab.com/MRowa)",
      "license": "CC-BY-SA-4.0 (http://creativecommons.org/licenses/by-sa/4.0/)",
      "source": "https://sketchfab.com/3d-models/cybernetic-factory-daae55c1f49a4911925e20a4779796e2",
      "title": "Cybernetic Factory"
    },
    "generator": "Sketchfab-12.66.0",
    "version": "2.0"
  },
  "bufferViews": [
    {
      "buffer": 0,
      "byteLength": 45432,
      "name": "floatBufferViews",
      "target": 34963
    },
    {
      "buffer": 0,
      "byteLength": 53128,
      "byteOffset": 45432,
      "byteStride": 8,
      "name": "floatBufferViews",
      "target": 34962
    },
    {
      "buffer": 0,
      "byteLength": 159384,
      "byteOffset": 98560,
      "byteStride": 12,
      "name": "floatBufferViews",
      "target": 34962
    }
  ],
  "buffers": [
    {
      "byteLength": 257944,
      "uri": "scene.bin"
    }
  ],
  "images": [
    {
      "uri": "textures/Placeable_baseColor.png"
    },
    {
      "uri": "textures/Placeable_metallicRoughness.png"
    },
    {
      "uri": "textures/Placeable_emissive.png"
    }
  ],
  "materials": [
    {
      "doubleSided": true,
      "emissiveFactor": [
        1.0,
        1.0,
        1.0
      ],
      "emissiveTexture": {
        "index": 2
      },
      "name": "Placeable",
      "pbrMetallicRoughness": {
        "baseColorTexture": {
          "index": 0
        },
        "metallicRoughnessTexture": {
          "index": 1
        },
        "roughnessFactor": 0.75
      }
    }
  ],
  "meshes": [
    {
      "name": "CyberneticFactory_Foundation_Placeable_0",
      "primitives": [
        {
          "attributes": {
            "NORMAL": 1,
            "POSITION": 0,
            "TEXCOORD_0": 2
          },
          "indices": 3,
          "material": 0,
          "mode": 4
        }
      ]
    },
    {
      "name": "CyberneticFactory_Foundation_Body_Placeable_0",
      "primitives": [
        {
          "attributes": {
            "NORMAL": 5,
            "POSITION": 4,
            "TEXCOORD_0": 6
          },
          "indices": 7,
          "material": 0,
          "mode": 4
        }
      ]
    },
    {
      "name": "CyberneticFactory_Foundation_Angar_Placeable_0",
      "primitives": [
        {
          "attributes": {
            "NORMAL": 9,
            "POSITION": 8,
            "TEXCOORD_0": 10
          },
          "indices": 11,
          "material": 0,
          "mode": 4
        }
      ]
    },
    {
      "name": "CyberneticFactory_Foundation_Door_Placeable_0",
      "primitives": [
        {
          "attributes": {
            "NORMAL": 13,
            "POSITION": 12,
            "TEXCOORD_0": 14
          },
          "indices": 15,
          "material": 0,
          "mode": 4
        }
      ]
    },
    {
      "name": "CyberneticFactory_Foundation_FoundationParts_Placeable_0",
      "primitives": [
        {
          "attributes": {
            "NORMAL": 17,
            "POSITION": 16,
            "TEXCOORD_0": 18
          },
          "indices": 19,
          "material": 0,
          "mode": 4
        }
      ]
    },
    {
      "name": "CyberneticFactory_Foundation_Head_Placeable_0",
      "primitives": [
        {
          "attributes": {
            "NORMAL": 21,
            "POSITION": 20,
            "TEXCOORD_0": 22
          },
          "indices": 23,
          "material": 0,
          "mode": 4
        }
      ]
    },
    {
      "name": "CyberneticFactory_Foundation_Chimney_Placeable_0",
      "primitives": [
        {
          "attributes": {
            "NORMAL": 25,
            "POSITION": 24,
            "TEXCOORD_0": 26
          },
          "indices": 27,
          "material": 0,
          "mode": 4
        }
      ]
    }
  ],
  "nodes": [
    {
      "children": [
        1
      ],
      "matrix": [
        1.0,
        0.0,
        0.0,
        0.0,
        0.0,
        2.220446049250313e-16,
        -1.0,
        0.0,
        0.0,
        1.0,
        2.220446049250313e-16,
        0.0,
        0.0,
        0.0,
        0.0,
        1.0
      ],
      "name": "Sketchfab_model"
    },
    {
      "children": [
        2
      ],
      "matrix": [
        1.0,
        0.0,
        0.0,
        0.0,
        0.0,
        0.0,
        1.0,
        0.0,
        0.0,
        -1.0,
        0.0,
        0.0,
        0.0,
        0.0,
        0.0,
        1.0
      ],
      "name": "e6aba53e26b64200b9ba3393ab5d2db5.fbx"
    },
    {
      "children": [
        3
      ],
      "name": "RootNode"
    },
    {
      "children": [
        4,
        6,
        8,
        10,
        12,
        14,
        16
      ],
      "matrix": [
        100.0,
        0.0,
        0.0,
        0.0,
        0.0,
        -1.629206793918314e-05,
        -99.99999999999868,
        0.0,
        0.0,
        99.99999999999868,
        -1.629206793918314e-05,
        0.0,
        0.0,
        0.0,
        0.0,
        1.0
      ],
      "name": "CyberneticFactory"
    },
    {
      "children": [
        5
      ],
      "matrix": [
        1.0,
        0.0,
        0.0,
        0.0,
        0.0,
        1.0,
        -2.646977960169688e-23,
        0.0,
        0.0,
        2.646977960169688e-23,
        1.0,
        0.0,
        0.0,
        0.0,
        0.0,
        1.0
      ],
      "name": "CyberneticFactory_Foundation"
    },
    {
      "mesh": 0,
      "name": "CyberneticFactory_Foundation_Placeable_0"
    },
    {
      "children": [
        7
      ],
      "matrix": [
        1.0,
        0.0,
        0.0,
        0.0,
        0.0,
        1.0,
        -2.646977960169688e-23,
        0.0,
        0.0,
        2.646977960169688e-23,
        1.0,
        0.0,
        0.0,
        0.0,
        0.0,
        1.0
      ],
      "name": "CyberneticFactory_Foundation_Body"
    },
    {
      "mesh": 1,
      "name": "CyberneticFactory_Foundation_Body_Placeable_0"
    },
    {
      "children": [
        9
      ],
      "matrix": [
        1.0,
        0.0,
        0.0,
        0.0,
        0.0,
        1.0,
        -2.646977960169688e-23,
        0.0,
        0.0,
        2.646977960169688e-23,
        1.0,
        0.0,
        0.0,
        0.0,
        0.0,
        1.0
      ],
      "name": "CyberneticFactory_Foundation_Angar"
    },
    {
      "mesh": 2,
      "name": "CyberneticFactory_Foundation_Angar_Placeable_0"
    },
    {
      "children": [
        11
      ],
      "matrix": [
        1.0,
        0.0,
        0.0,
        0.0,
        0.0,
        1.0,
        -2.646977960169688e-23,
        0.0,
        0.0,
        2.646977960169688e-23,
        1.0,
        0.0,
        0.0,
        0.5,
        -1.3234889800848443e-23,
        1.0
      ],
      "name": "CyberneticFactory_Foundation_Door"
    },
    {
      "mesh": 3,
      "name": "CyberneticFactory_Foundation_Door_Placeable_0"
    },
    {
      "children": [
        13
      ],
      "matrix": [
        1.0,
        0.0,
        0.0,
        0.0,
        0.0,
        1.0,
        -2.646977960169688e-23,
        0.0,
        0.0,
        2.646977960169688e-23,
        1.0,
        0.0,
        0.0,
        0.0,
        0.0,
        1.0
      ],
      "name": "CyberneticFactory_Foundation_FoundationParts"
    },
    {
      "mesh": 4,
      "name": "CyberneticFactory_Foundation_FoundationParts_Placeable_0"
    },
    {
      "children": [
        15
      ],
      "matrix": [
        1.0,
        0.0,
        0.0,
        0.0,
        0.0,
        1.0,
        -2.646977960169688e-23,
        0.0,
        0.0,
        2.646977960169688e-23,
        1.0,
        0.0,
        0.0,
        0.0,
        0.0,
        1.0
      ],
      "name": "CyberneticFactory_Foundation_Head"
    },
    {
      "mesh": 5,
      "name": "CyberneticFactory_Foundation_Head_Placeable_0"
    },
    {
      "children": [
        17
      ],
      "matrix": [
        1.0,
        0.0,
        0.0,
        0.0,
        0.0,
        1.0,
        -2.646977960169688e-23,
        0.0,
        0.0,
        2.646977960169688e-23,
        1.0,
        0.0,
        0.0,
        0.0,
        0.0,
        1.0
      ],
      "name": "CyberneticFactory_Foundation_Chimney"
    },
    {
      "mesh": 6,
      "name": "CyberneticFactory_Foundation_Chimney_Placeable_0"
    }
  ],
  "samplers": [
    {
      "magFilter": 9728,
      "minFilter": 9728,
      "wrapS": 10497,
      "wrapT": 10497
    }
  ],
  "scene": 0,
  "scenes": [
    {
      "name": "Sketchfab_Scene",
      "nodes": [
        0
      ]
    }
  ],
  "textures": [
    {
      "sampler": 0,
      "source": 0
    },
    {
      "sampler": 0,
      "source": 1
    },
    {
      "sampler": 0,
      "source": 2
    }
  ]
}
