{
  "accessors": [
    {
      "bufferView": 2,
      "componentType": 5126,
      "count": 311,
      "max": [
        17.472137451171875,
        18.0,
        1.0
      ],
      "min": [
        -17.472137451171875,
        -18.24264144897461,
        0.0
      ],
      "type": "VEC3"
    },
    {
      "bufferView": 2,
      "byteOffset": 3732,
      "componentType": 5126,
      "count": 311,
      "max": [
        1.0,
        1.0,
        1.0
      ],
      "min": [
        -1.0,
        -1.0,
        -1.0
      ],
      "type": "VEC3"
    },
    {
      "bufferView": 1,
      "componentType": 5126,
      "count": 311,
      "max": [
        0.48750001192092896,
        0.862500011920929
      ],
      "min": [
        0.38749998807907104,
        0.762499988079071
      ],
      "type": "VEC2"
    },
    {
      "bufferView": 0,
      "componentType": 5125,
      "count": 588,
      "type": "SCALAR"
    },
    {
      "bufferView": 2,
      "byteOffset": 7464,
      "componentType": 5126,
      "count": 4419,
      "max": [
        17.058155059814453,
        17.588890075683594,
        18.0
      ],
      "min": [
        -17.058155059814453,
        -18.007797241210938,
        1.0
      ],
      "type": "VEC3"
    },
    {
      "bufferView": 2,
      "byteOffset": 60492,
      "componentType": 5126,
      "count": 4419,
      "max": [
        1.0,
        1.0,
        1.0
      ],
      "min": [
        -1.0,
        -1.0,
        -1.0
      ],
      "type": "VEC3"
    },
    {
      "bufferView": 1,
      "byteOffset": 2488,
      "componentType": 5126,
      "count": 4419,
      "max": [
        0.9867921471595764,
        0.8633182048797607
      ],
      "min": [
        0.018399178981781006,
        0.018743157386779785
      ],
      "type": "VEC2"
    },
    {
      "bufferView": 0,
      "byteOffset": 2352,
      "componentType": 5125,
      "count": 6798,
      "type": "SCALAR"
    },
    {
      "bufferView": 2,
      "byteOffset": 113520,
      "componentType": 5126,
      "count": 76,
      "max": [
        1.0,
        -11.0,
        3.0
      ],
      "min": [
        -1.0,
        -11.0,
        1.0
      ],
      "type": "VEC3"
    },
    {
      "bufferView": 2,
      "byteOffset": 114432,
      "componentType": 5126,
      "count": 76,
      "max": [
        0.0,
        -1.0,
        1.3170900274417363e-05
      ],
      "min": [
        0.0,
        -1.0,
        -8.78059017850319e-06
      ],
      "type": "VEC3"
    },
    {
      "bufferView": 1,
      "byteOffset": 37840,
      "componentType": 5126,
      "count": 76,
      "max": [
        0.889382541179657,
        0.7898437976837158
      ],
      "min": [
        0.38938242197036743,
        0.037359416484832764
      ],
      "type": "VEC2"
    },
    {
      "bufferView": 0,
      "byteOffset": 29544,
      "componentType": 5125,
      "count": 120,
      "type": "SCALAR"
    },
    {
      "bufferView": 2,
      "byteOffset": 115344,
      "componentType": 5126,
      "count": 3135,
      "max": [
        2.0999999046325684,
        5.918661594390869,
        13.196959495544434
      ],
      "min": [
        -11.974977493286133,
        -4.914100646972656,
        -13.0
      ],
      "type": "VEC3"
    },
    {
      "bufferView": 2,
      "byteOffset": 152964,
      "componentType": 5126,
      "count": 3135,
      "max": [
        1.0,
        1.0,
        0.9448978304862976
      ],
      "min": [
        -1.0,
        -1.0,
        -1.0
      ],
      "type": "VEC3"
    },
    {
      "bufferView": 1,
      "byteOffset": 38448,
      "componentType": 5126,
      "count": 3135,
      "max": [
        0.862500011920929,
        0.862500011920929
      ],
      "min": [
        0.3958214521408081,
        0.762499988079071
      ],
      "type": "VEC2"
    },
    {
      "bufferView": 0,
      "byteOffset": 30024,
      "componentType": 5125,
      "count": 4944,
      "type": "SCALAR"
    },
    {
      "bufferView": 2,
      "byteOffset": 190584,
      "componentType": 5126,
      "count": 2080,
      "max": [
        16.358152389526367,
        11.5,
        23.674894332885742
      ],
      "min": [
        -16.358152389526367,
        -6.761015892028809,
        1.5
      ],
      "type": "VEC3"
    },
    {
      "bufferView": 2,
      "byteOffset": 215544,
      "componentType": 5126,
      "count": 2080,
      "max": [
        0.9995654225349426,
        1.0,
        1.0
      ],
      "min": [
        -0.9995653629302979,
        -0.9995654821395874,
        -0.9841328263282776
      ],
      "type": "VEC3"
    },
    {
      "bufferView": 1,
      "byteOffset": 63528,
      "componentType": 5126,
      "count": 2080,
      "max": [
        0.48750001192092896,
        0.8669999837875366
      ],
      "min": [
        0.38749998807907104,
        0.8008180856704712
      ],
      "type": "VEC2"
    },
    {
      "bufferView": 0,
      "byteOffset": 49800,
      "componentType": 5125,
      "count": 3132,
      "type": "SCALAR"
    }
  ],
  "asset": {
    "extras": {
      "author": "MRowa (https://sketchfab.com/MRowa)",
      "license": "CC-BY-SA-4.0 (http://creativecommons.org/licenses/by-sa/4.0/)",
      "source": "https://sketchfab.com/3d-models/jewelry-factory-2d77e6d443224097a2e584ef596cfd04",
      "title": "Jewelry Factory"
    },
    "generator": "Sketchfab-12.66.0",
    "version": "2.0"
  },
  "bufferViews": [
    {
      "buffer": 0,
      "byteLength": 62328,
      "name": "floatBufferViews",
      "target": 34963
    },
    {
      "buffer": 0,
      "byteLength": 80168,
      "byteOffset": 62328,
      "byteStride": 8,
      "name": "floatBufferViews",
      "target": 34962
    },
    {
      "buffer": 0,
      "byteLength": 240504,
      "byteOffset": 142496,
      "byteStride": 12,
      "name": "floatBufferViews",
      "target": 34962
    }
  ],
  "buffers": [
    {
      "byteLength": 383000,
      "uri": "scene.bin"
    }
  ],
  "images": [
    {
      "uri": "textures/Placeable_baseColor.png"
    },
    {
      "uri": "textures/Placeable_metallicRoughness.png"
    },
    {
      "uri": "textures/Placeable_emissive.png"
    }
  ],
  "materials": [
    {
      "doubleSided": true,
      "emissiveFactor": [
        1.0,
        1.0,
        1.0
      ],
      "emissiveTexture": {
        "index": 2
      },
      "name": "Placeable",
      "pbrMetallicRoughness": {
        "baseColorTexture": {
          "index": 0
        },
        "metallicRoughnessTexture": {
          "index": 1
        }
      }
    }
  ],
  "meshes": [
    {
      "name": "JewelryFactory_Foundation_Placeable_0",
      "primitives": [
        {
          "attributes": {
            "NORMAL": 1,
            "POSITION": 0,
            "TEXCOORD_0": 2
          },
          "indices": 3,
          "material": 0,
          "mode": 4
        }
      ]
    },
    {
      "name": "JewelryFactory_Body_Placeable_0",
      "primitives": [
        {
          "attributes": {
            "NORMAL": 5,
            "POSITION": 4,
            "TEXCOORD_0": 6
          },
          "indices": 7,
          "material": 0,
          "mode": 4
        }
      ]
    },
    {
      "name": "JewelryFactory_Door_Placeable_0",
      "primitives": [
        {
          "attributes": {
            "NORMAL": 9,
            "POSITION": 8,
            "TEXCOORD_0": 10
          },
          "indices": 11,
          "material": 0,
          "mode": 4
        }
      ]
    },
    {
      "name": "JewelryFactory_Chimney_Placeable_0",
      "primitives": [
        {
          "attributes": {
            "NORMAL": 13,
            "POSITION": 12,
            "TEXCOORD_0": 14
          },
          "indices": 15,
          "material": 0,
          "mode": 4
        }
      ]
    },
    {
      "name": "JewelryFactory_Parts_Placeable_0",
      "primitives": [
        {
          "attributes": {
            "NORMAL": 17,
            "POSITION": 16,
            "TEXCOORD_0": 18
          },
          "indices": 19,
          "material": 0,
          "mode": 4
        }
      ]
    }
  ],
  "nodes": [
    {
      "children": [
        1
      ],
      "matrix": [
        1.0,
        0.0,
        0.0,
        0.0,
        0.0,
        2.220446049250313e-16,
        -1.0,
        0.0,
        0.0,
        1.0,
        2.220446049250313e-16,
        0.0,
        0.0,
        0.0,
        0.0,
        1.0
      ],
      "name": "Sketchfab_model"
    },
    {
      "children": [
        2
      ],
      "matrix": [
        1.0,
        0.0,
        0.0,
        0.0,
        0.0,
        0.0,
        1.0,
        0.0,
        0.0,
        -1.0,
        0.0,
        0.0,
        0.0,
        0.0,
        0.0,
        1.0
      ],
      "name": "6bdb146d40b54468b1b84eaa29a24467.fbx"
    },
    {
      "children": [
        3
      ],
      "name": "RootNode"
    },
    {
      "children": [
        4,
        6,
        8,
        10,
        12
      ],
      "matrix": [
        100.0,
        0.0,
        0.0,
        0.0,
        0.0,
        -1.629206793918314e-05,
        -99.99999999999868,
        0.0,
        0.0,
        99.99999999999868,
        -1.629206793918314e-05,
        0.0,
        0.0,
        0.0,
        0.0,
        1.0
      ],
      "name": "JewelryFactory"
    },
    {
      "children": [
        5
      ],
      "matrix": [
        1.0,
        0.0,
        0.0,
        0.0,
        0.0,
        1.0,
        -2.646977960169688e-23,
        0.0,
        0.0,
        2.646977960169688e-23,
        1.0,
        0.0,
        0.0,
        0.0,
        0.0,
        1.0
      ],
      "name": "JewelryFactory_Foundation"
    },
    {
      "mesh": 0,
      "name": "JewelryFactory_Foundation_Placeable_0"
    },
    {
      "children": [
        7
      ],
      "matrix": [
        1.0,
        0.0,
        0.0,
        0.0,
        0.0,
        1.0,
        -2.646977960169688e-23,
        0.0,
        0.0,
        2.646977960169688e-23,
        1.0,
        0.0,
        0.0,
        0.0,
        0.0,
        1.0
      ],
      "name": "JewelryFactory_Body"
    },
    {
      "mesh": 1,
      "name": "JewelryFactory_Body_Placeable_0"
    },
    {
      "children": [
        9
      ],
      "matrix": [
        1.0,
        0.0,
        0.0,
        0.0,
        0.0,
        1.0,
        -2.646977960169688e-23,
        0.0,
        0.0,
        2.646977960169688e-23,
        1.0,
        0.0,
        0.0,
        -0.5,
        1.3234889800848443e-23,
        1.0
      ],
      "name": "JewelryFactory_Door"
    },
    {
      "mesh": 2,
      "name": "JewelryFactory_Door_Placeable_0"
    },
    {
      "children": [
        11
      ],
      "matrix": [
        0.8660253448800708,
        0.4999999828160683,
        1.3234889800848446e-23,
        0.0,
        -0.4999999828160683,
        0.8660253448800708,
        -2.6469779601696886e-23,
        0.0,
        -2.4696642294292156e-23,
        1.630605727929567e-23,
        1.0,
        0.0,
        4.000007629394531,
        12.999969482421875,
        13.0,
        1.0
      ],
      "name": "JewelryFactory_Chimney"
    },
    {
      "mesh": 3,
      "name": "JewelryFactory_Chimney_Placeable_0"
    },
    {
      "children": [
        13
      ],
      "matrix": [
        1.0,
        0.0,
        0.0,
        0.0,
        0.0,
        1.0,
        -2.646977960169688e-23,
        0.0,
        0.0,
        2.646977960169688e-23,
        1.0,
        0.0,
        0.0,
        0.0,
        0.0,
        1.0
      ],
      "name": "JewelryFactory_Parts"
    },
    {
      "mesh": 4,
      "name": "JewelryFactory_Parts_Placeable_0"
    }
  ],
  "samplers": [
    {
      "magFilter": 9728,
      "minFilter": 9728,
      "wrapS": 10497,
      "wrapT": 10497
    }
  ],
  "scene": 0,
  "scenes": [
    {
      "name": "Sketchfab_Scene",
      "nodes": [
        0
      ]
    }
  ],
  "textures": [
    {
      "sampler": 0,
      "source": 0
    },
    {
      "sampler": 0,
      "source": 1
    },
    {
      "sampler": 0,
      "source": 2
    }
  ]
}
