{
  "accessors": [
    {
      "bufferView": 2,
      "componentType": 5126,
      "count": 546,
      "max": [
        4.666297435760498,
        1.6555283069610596,
        0.4441556930541992
      ],
      "min": [
        -4.666297435760498,
        -1.6555283069610596,
        -0.4490528106689453
      ],
      "type": "VEC3"
    },
    {
      "bufferView": 2,
      "byteOffset": 6552,
      "componentType": 5126,
      "count": 546,
      "max": [
        1.0,
        1.0,
        1.0
      ],
      "min": [
        -1.0,
        -1.0,
        -1.0
      ],
      "type": "VEC3"
    },
    {
      "bufferView": 3,
      "componentType": 5126,
      "count": 546,
      "max": [
        0.9999884963035583,
        0.9992373585700989,
        0.9999884366989136,
        1.0
      ],
      "min": [
        -0.999540388584137,
        -0.9999979734420776,
        -0.9998741149902344,
        -1.0
      ],
      "type": "VEC4"
    },
    {
      "bufferView": 1,
      "componentType": 5126,
      "count": 546,
      "max": [
        0.43387606739997864,
        0.9999990463256836
      ],
      "min": [
        0.15637072920799255,
        0.3130834698677063
      ],
      "type": "VEC2"
    },
    {
      "bufferView": 1,
      "byteOffset": 4368,
      "componentType": 5126,
      "count": 546,
      "max": [
        0.43387606739997864,
        0.9999990463256836
      ],
      "min": [
        0.15637072920799255,
        0.3130834698677063
      ],
      "type": "VEC2"
    },
    {
      "bufferView": 1,
      "byteOffset": 8736,
      "componentType": 5126,
      "count": 546,
      "max": [
        0.43387606739997864,
        0.9999990463256836
      ],
      "min": [
        0.15637072920799255,
        0.3130834698677063
      ],
      "type": "VEC2"
    },
    {
      "bufferView": 1,
      "byteOffset": 13104,
      "componentType": 5126,
      "count": 546,
      "max": [
        0.43387606739997864,
        0.9999990463256836
      ],
      "min": [
        0.15637072920799255,
        0.3130834698677063
      ],
      "type": "VEC2"
    },
    {
      "bufferView": 1,
      "byteOffset": 17472,
      "componentType": 5126,
      "count": 546,
      "max": [
        0.43387606739997864,
        0.9999990463256836
      ],
      "min": [
        0.15637072920799255,
        0.3130834698677063
      ],
      "type": "VEC2"
    },
    {
      "bufferView": 1,
      "byteOffset": 21840,
      "componentType": 5126,
      "count": 546,
      "max": [
        0.43387606739997864,
        0.9999990463256836
      ],
      "min": [
        0.15637072920799255,
        0.3130834698677063
      ],
      "type": "VEC2"
    },
    {
      "bufferView": 1,
      "byteOffset": 26208,
      "componentType": 5126,
      "count": 546,
      "max": [
        0.43387606739997864,
        0.9999990463256836
      ],
      "min": [
        0.15637072920799255,
        0.3130834698677063
      ],
      "type": "VEC2"
    },
    {
      "bufferView": 1,
      "byteOffset": 30576,
      "componentType": 5126,
      "count": 546,
      "max": [
        0.43387606739997864,
        0.9999990463256836
      ],
      "min": [
        0.15637072920799255,
        0.3130834698677063
      ],
      "type": "VEC2"
    },
    {
      "bufferView": 1,
      "byteOffset": 34944,
      "componentType": 5126,
      "count": 546,
      "max": [
        0.43387606739997864,
        0.9999990463256836
      ],
      "min": [
        0.15637072920799255,
        0.3130834698677063
      ],
      "type": "VEC2"
    },
    {
      "bufferView": 1,
      "byteOffset": 39312,
      "componentType": 5126,
      "count": 546,
      "max": [
        0.43387606739997864,
        0.9999990463256836
      ],
      "min": [
        0.15637072920799255,
        0.3130834698677063
      ],
      "type": "VEC2"
    },
    {
      "bufferView": 0,
      "componentType": 5125,
      "count": 996,
      "type": "SCALAR"
    },
    {
      "bufferView": 2,
      "byteOffset": 13104,
      "componentType": 5126,
      "count": 252,
      "max": [
        1.6060429811477661,
        5.205572128295898,
        0.2344970703125
      ],
      "min": [
        -1.6060435771942139,
        -5.205572128295898,
        -0.1738758087158203
      ],
      "type": "VEC3"
    },
    {
      "bufferView": 2,
      "byteOffset": 16128,
      "componentType": 5126,
      "count": 252,
      "max": [
        1.0,
        1.0,
        0.9598919153213501
      ],
      "min": [
        -1.0,
        -1.0,
        -1.0
      ],
      "type": "VEC3"
    },
    {
      "bufferView": 3,
      "byteOffset": 8736,
      "componentType": 5126,
      "count": 252,
      "max": [
        0.9999803900718689,
        0.999847948551178,
        0.9885964393615723,
        1.0
      ],
      "min": [
        -0.9987499117851257,
        -0.9998766183853149,
        -0.9995642304420471,
        -1.0
      ],
      "type": "VEC4"
    },
    {
      "bufferView": 1,
      "byteOffset": 43680,
      "componentType": 5126,
      "count": 252,
      "max": [
        0.7669162750244141,
        0.7575070261955261
      ],
      "min": [
        0.019155016168951988,
        1.0319054126739502e-06
      ],
      "type": "VEC2"
    },
    {
      "bufferView": 1,
      "byteOffset": 45696,
      "componentType": 5126,
      "count": 252,
      "max": [
        0.7669162750244141,
        0.7575070261955261
      ],
      "min": [
        0.019155016168951988,
        1.0319054126739502e-06
      ],
      "type": "VEC2"
    },
    {
      "bufferView": 1,
      "byteOffset": 47712,
      "componentType": 5126,
      "count": 252,
      "max": [
        0.7669162750244141,
        0.7575070261955261
      ],
      "min": [
        0.019155016168951988,
        1.0319054126739502e-06
      ],
      "type": "VEC2"
    },
    {
      "bufferView": 1,
      "byteOffset": 49728,
      "componentType": 5126,
      "count": 252,
      "max": [
        0.7669162750244141,
        0.7575070261955261
      ],
      "min": [
        0.019155016168951988,
        1.0319054126739502e-06
      ],
      "type": "VEC2"
    },
    {
      "bufferView": 1,
      "byteOffset": 51744,
      "componentType": 5126,
      "count": 252,
      "max": [
        0.7669162750244141,
        0.7575070261955261
      ],
      "min": [
        0.019155016168951988,
        1.0319054126739502e-06
      ],
      "type": "VEC2"
    },
    {
      "bufferView": 1,
      "byteOffset": 53760,
      "componentType": 5126,
      "count": 252,
      "max": [
        0.7669162750244141,
        0.7575070261955261
      ],
      "min": [
        0.019155016168951988,
        1.0319054126739502e-06
      ],
      "type": "VEC2"
    },
    {
      "bufferView": 1,
      "byteOffset": 55776,
      "componentType": 5126,
      "count": 252,
      "max": [
        0.7669162750244141,
        0.7575070261955261
      ],
      "min": [
        0.019155016168951988,
        1.0319054126739502e-06
      ],
      "type": "VEC2"
    },
    {
      "bufferView": 1,
      "byteOffset": 57792,
      "componentType": 5126,
      "count": 252,
      "max": [
        0.7669162750244141,
        0.7575070261955261
      ],
      "min": [
        0.019155016168951988,
        1.0319054126739502e-06
      ],
      "type": "VEC2"
    },
    {
      "bufferView": 1,
      "byteOffset": 59808,
      "componentType": 5126,
      "count": 252,
      "max": [
        0.7669162750244141,
        0.7575070261955261
      ],
      "min": [
        0.019155016168951988,
        1.0319054126739502e-06
      ],
      "type": "VEC2"
    },
    {
      "bufferView": 1,
      "byteOffset": 61824,
      "componentType": 5126,
      "count": 252,
      "max": [
        0.7669162750244141,
        0.7575070261955261
      ],
      "min": [
        0.019155016168951988,
        1.0319054126739502e-06
      ],
      "type": "VEC2"
    },
    {
      "bufferView": 0,
      "byteOffset": 3984,
      "componentType": 5125,
      "count": 504,
      "type": "SCALAR"
    },
    {
      "bufferView": 2,
      "byteOffset": 19152,
      "componentType": 5126,
      "count": 256,
      "max": [
        0.9271798133850098,
        3.2952499389648438,
        0.3785715103149414
      ],
      "min": [
        -0.9271798133850098,
        -3.2952499389648438,
        -0.30967044830322266
      ],
      "type": "VEC3"
    },
    {
      "bufferView": 2,
      "byteOffset": 22224,
      "componentType": 5126,
      "count": 256,
      "max": [
        0.9995326399803162,
        1.0,
        0.9895451664924622
      ],
      "min": [
        -0.9995326399803162,
        -1.0,
        -1.0
      ],
      "type": "VEC3"
    },
    {
      "bufferView": 3,
      "byteOffset": 12768,
      "componentType": 5126,
      "count": 256,
      "max": [
        0.9515972137451172,
        0.9992294311523438,
        0.9929602742195129,
        1.0
      ],
      "min": [
        -0.9821819067001343,
        -0.30734825134277344,
        -0.9887015223503113,
        -1.0
      ],
      "type": "VEC4"
    },
    {
      "bufferView": 1,
      "byteOffset": 63840,
      "componentType": 5126,
      "count": 256,
      "max": [
        0.8893895745277405,
        0.9309244155883789
      ],
      "min": [
        0.7557705044746399,
        0.34807920455932617
      ],
      "type": "VEC2"
    },
    {
      "bufferView": 1,
      "byteOffset": 65888,
      "componentType": 5126,
      "count": 256,
      "max": [
        0.8893895745277405,
        0.9309244155883789
      ],
      "min": [
        0.7557705044746399,
        0.34807920455932617
      ],
      "type": "VEC2"
    },
    {
      "bufferView": 1,
      "byteOffset": 67936,
      "componentType": 5126,
      "count": 256,
      "max": [
        0.8893895745277405,
        0.9309244155883789
      ],
      "min": [
        0.7557705044746399,
        0.34807920455932617
      ],
      "type": "VEC2"
    },
    {
      "bufferView": 1,
      "byteOffset": 69984,
      "componentType": 5126,
      "count": 256,
      "max": [
        0.8893895745277405,
        0.9309244155883789
      ],
      "min": [
        0.7557705044746399,
        0.34807920455932617
      ],
      "type": "VEC2"
    },
    {
      "bufferView": 1,
      "byteOffset": 72032,
      "componentType": 5126,
      "count": 256,
      "max": [
        0.8893895745277405,
        0.9309244155883789
      ],
      "min": [
        0.7557705044746399,
        0.34807920455932617
      ],
      "type": "VEC2"
    },
    {
      "bufferView": 1,
      "byteOffset": 74080,
      "componentType": 5126,
      "count": 256,
      "max": [
        0.8893895745277405,
        0.9309244155883789
      ],
      "min": [
        0.7557705044746399,
        0.34807920455932617
      ],
      "type": "VEC2"
    },
    {
      "bufferView": 1,
      "byteOffset": 76128,
      "componentType": 5126,
      "count": 256,
      "max": [
        0.8893895745277405,
        0.9309244155883789
      ],
      "min": [
        0.7557705044746399,
        0.34807920455932617
      ],
      "type": "VEC2"
    },
    {
      "bufferView": 1,
      "byteOffset": 78176,
      "componentType": 5126,
      "count": 256,
      "max": [
        0.8893895745277405,
        0.9309244155883789
      ],
      "min": [
        0.7557705044746399,
        0.34807920455932617
      ],
      "type": "VEC2"
    },
    {
      "bufferView": 1,
      "byteOffset": 80224,
      "componentType": 5126,
      "count": 256,
      "max": [
        0.8893895745277405,
        0.9309244155883789
      ],
      "min": [
        0.7557705044746399,
        0.34807920455932617
      ],
      "type": "VEC2"
    },
    {
      "bufferView": 1,
      "byteOffset": 82272,
      "componentType": 5126,
      "count": 256,
      "max": [
        0.8893895745277405,
        0.9309244155883789
      ],
      "min": [
        0.7557705044746399,
        0.34807920455932617
      ],
      "type": "VEC2"
    },
    {
      "bufferView": 0,
      "byteOffset": 6000,
      "componentType": 5125,
      "count": 528,
      "type": "SCALAR"
    },
    {
      "bufferView": 2,
      "byteOffset": 25296,
      "componentType": 5126,
      "count": 779,
      "max": [
        4.115797996520996,
        0.7050102353096008,
        1.80723237991333
      ],
      "min": [
        -4.115797996520996,
        -0.7050102353096008,
        -0.1633739471435547
      ],
      "type": "VEC3"
    },
    {
      "bufferView": 2,
      "byteOffset": 34644,
      "componentType": 5126,
      "count": 779,
      "max": [
        1.0,
        1.0,
        1.0
      ],
      "min": [
        -1.0,
        -1.0,
        -1.0
      ],
      "type": "VEC3"
    },
    {
      "bufferView": 3,
      "byteOffset": 16864,
      "componentType": 5126,
      "count": 779,
      "max": [
        0.9979658722877502,
        0.996329665184021,
        0.9963868260383606,
        1.0
      ],
      "min": [
        -0.999999463558197,
        -0.9930577874183655,
        -0.9999912977218628,
        1.0
      ],
      "type": "VEC4"
    },
    {
      "bufferView": 1,
      "byteOffset": 84320,
      "componentType": 5126,
      "count": 779,
      "max": [
        0.7620557546615601,
        0.6192491054534912
      ],
      "min": [
        0.3586358428001404,
        0.35799673199653625
      ],
      "type": "VEC2"
    },
    {
      "bufferView": 1,
      "byteOffset": 90552,
      "componentType": 5126,
      "count": 779,
      "max": [
        0.7620557546615601,
        0.6192491054534912
      ],
      "min": [
        0.3586358428001404,
        0.35799673199653625
      ],
      "type": "VEC2"
    },
    {
      "bufferView": 1,
      "byteOffset": 96784,
      "componentType": 5126,
      "count": 779,
      "max": [
        0.7620557546615601,
        0.6192491054534912
      ],
      "min": [
        0.3586358428001404,
        0.35799673199653625
      ],
      "type": "VEC2"
    },
    {
      "bufferView": 1,
      "byteOffset": 103016,
      "componentType": 5126,
      "count": 779,
      "max": [
        0.7620557546615601,
        0.6192491054534912
      ],
      "min": [
        0.3586358428001404,
        0.35799673199653625
      ],
      "type": "VEC2"
    },
    {
      "bufferView": 1,
      "byteOffset": 109248,
      "componentType": 5126,
      "count": 779,
      "max": [
        0.7620557546615601,
        0.6192491054534912
      ],
      "min": [
        0.3586358428001404,
        0.35799673199653625
      ],
      "type": "VEC2"
    },
    {
      "bufferView": 1,
      "byteOffset": 115480,
      "componentType": 5126,
      "count": 779,
      "max": [
        0.7620557546615601,
        0.6192491054534912
      ],
      "min": [
        0.3586358428001404,
        0.35799673199653625
      ],
      "type": "VEC2"
    },
    {
      "bufferView": 1,
      "byteOffset": 121712,
      "componentType": 5126,
      "count": 779,
      "max": [
        0.7620557546615601,
        0.6192491054534912
      ],
      "min": [
        0.3586358428001404,
        0.35799673199653625
      ],
      "type": "VEC2"
    },
    {
      "bufferView": 1,
      "byteOffset": 127944,
      "componentType": 5126,
      "count": 779,
      "max": [
        0.7620557546615601,
        0.6192491054534912
      ],
      "min": [
        0.3586358428001404,
        0.35799673199653625
      ],
      "type": "VEC2"
    },
    {
      "bufferView": 1,
      "byteOffset": 134176,
      "componentType": 5126,
      "count": 779,
      "max": [
        0.7620557546615601,
        0.6192491054534912
      ],
      "min": [
        0.3586358428001404,
        0.35799673199653625
      ],
      "type": "VEC2"
    },
    {
      "bufferView": 1,
      "byteOffset": 140408,
      "componentType": 5126,
      "count": 779,
      "max": [
        0.7620557546615601,
        0.6192491054534912
      ],
      "min": [
        0.3586358428001404,
        0.35799673199653625
      ],
      "type": "VEC2"
    },
    {
      "bufferView": 0,
      "byteOffset": 8112,
      "componentType": 5125,
      "count": 1620,
      "type": "SCALAR"
    },
    {
      "bufferView": 2,
      "byteOffset": 43992,
      "componentType": 5126,
      "count": 192,
      "max": [
        1.711483359336853,
        0.6214892268180847,
        0.06309127807617188
      ],
      "min": [
        -1.7114834785461426,
        -0.6214892864227295,
        -0.06309127807617188
      ],
      "type": "VEC3"
    },
    {
      "bufferView": 2,
      "byteOffset": 46296,
      "componentType": 5126,
      "count": 192,
      "max": [
        0.9520699381828308,
        1.0,
        0.981279730796814
      ],
      "min": [
        -0.9520699381828308,
        -1.0,
        -0.981279730796814
      ],
      "type": "VEC3"
    },
    {
      "bufferView": 3,
      "byteOffset": 29328,
      "componentType": 5126,
      "count": 192,
      "max": [
        1.0,
        0.9519861936569214,
        0.9999939799308777,
        1.0
      ],
      "min": [
        -0.9986492395401001,
        -0.9500274062156677,
        -0.9999667406082153,
        -1.0
      ],
      "type": "VEC4"
    },
    {
      "bufferView": 1,
      "byteOffset": 146640,
      "componentType": 5126,
      "count": 192,
      "max": [
        0.34475138783454895,
        0.46869421005249023
      ],
      "min": [
        0.14217963814735413,
        0.005843985825777054
      ],
      "type": "VEC2"
    },
    {
      "bufferView": 1,
      "byteOffset": 148176,
      "componentType": 5126,
      "count": 192,
      "max": [
        0.34475138783454895,
        0.46869421005249023
      ],
      "min": [
        0.14217963814735413,
        0.005843985825777054
      ],
      "type": "VEC2"
    },
    {
      "bufferView": 1,
      "byteOffset": 149712,
      "componentType": 5126,
      "count": 192,
      "max": [
        0.34475138783454895,
        0.46869421005249023
      ],
      "min": [
        0.14217963814735413,
        0.005843985825777054
      ],
      "type": "VEC2"
    },
    {
      "bufferView": 1,
      "byteOffset": 151248,
      "componentType": 5126,
      "count": 192,
      "max": [
        0.34475138783454895,
        0.46869421005249023
      ],
      "min": [
        0.14217963814735413,
        0.005843985825777054
      ],
      "type": "VEC2"
    },
    {
      "bufferView": 1,
      "byteOffset": 152784,
      "componentType": 5126,
      "count": 192,
      "max": [
        0.34475138783454895,
        0.46869421005249023
      ],
      "min": [
        0.14217963814735413,
        0.005843985825777054
      ],
      "type": "VEC2"
    },
    {
      "bufferView": 1,
      "byteOffset": 154320,
      "componentType": 5126,
      "count": 192,
      "max": [
        0.34475138783454895,
        0.46869421005249023
      ],
      "min": [
        0.14217963814735413,
        0.005843985825777054
      ],
      "type": "VEC2"
    },
    {
      "bufferView": 1,
      "byteOffset": 155856,
      "componentType": 5126,
      "count": 192,
      "max": [
        0.34475138783454895,
        0.46869421005249023
      ],
      "min": [
        0.14217963814735413,
        0.005843985825777054
      ],
      "type": "VEC2"
    },
    {
      "bufferView": 1,
      "byteOffset": 157392,
      "componentType": 5126,
      "count": 192,
      "max": [
        0.34475138783454895,
        0.46869421005249023
      ],
      "min": [
        0.14217963814735413,
        0.005843985825777054
      ],
      "type": "VEC2"
    },
    {
      "bufferView": 1,
      "byteOffset": 158928,
      "componentType": 5126,
      "count": 192,
      "max": [
        0.34475138783454895,
        0.46869421005249023
      ],
      "min": [
        0.14217963814735413,
        0.005843985825777054
      ],
      "type": "VEC2"
    },
    {
      "bufferView": 1,
      "byteOffset": 160464,
      "componentType": 5126,
      "count": 192,
      "max": [
        0.34475138783454895,
        0.46869421005249023
      ],
      "min": [
        0.14217963814735413,
        0.005843985825777054
      ],
      "type": "VEC2"
    },
    {
      "bufferView": 0,
      "byteOffset": 14592,
      "componentType": 5125,
      "count": 432,
      "type": "SCALAR"
    },
    {
      "bufferView": 2,
      "byteOffset": 48600,
      "componentType": 5126,
      "count": 192,
      "max": [
        2.305405616760254,
        0.9784407615661621,
        0.4048953056335449
      ],
      "min": [
        -2.299821376800537,
        -0.9680585861206055,
        -0.40271663665771484
      ],
      "type": "VEC3"
    },
    {
      "bufferView": 2,
      "byteOffset": 50904,
      "componentType": 5126,
      "count": 192,
      "max": [
        0.9970609545707703,
        1.0,
        0.9812796115875244
      ],
      "min": [
        -0.9999637007713318,
        -1.0,
        -0.9813965559005737
      ],
      "type": "VEC3"
    },
    {
      "bufferView": 3,
      "byteOffset": 32400,
      "componentType": 5126,
      "count": 192,
      "max": [
        0.9995031952857971,
        0.9998989701271057,
        0.9773374795913696,
        1.0
      ],
      "min": [
        -0.9986585974693298,
        -0.9827635884284973,
        -0.8530313968658447,
        -1.0
      ],
      "type": "VEC4"
    },
    {
      "bufferView": 1,
      "byteOffset": 162000,
      "componentType": 5126,
      "count": 192,
      "max": [
        0.4872349798679352,
        0.4980871081352234
      ],
      "min": [
        0.005843999795615673,
        0.28922736644744873
      ],
      "type": "VEC2"
    },
    {
      "bufferView": 1,
      "byteOffset": 163536,
      "componentType": 5126,
      "count": 192,
      "max": [
        0.4872349798679352,
        0.4980871081352234
      ],
      "min": [
        0.005843999795615673,
        0.28922736644744873
      ],
      "type": "VEC2"
    },
    {
      "bufferView": 1,
      "byteOffset": 165072,
      "componentType": 5126,
      "count": 192,
      "max": [
        0.4872349798679352,
        0.4980871081352234
      ],
      "min": [
        0.005843999795615673,
        0.28922736644744873
      ],
      "type": "VEC2"
    },
    {
      "bufferView": 1,
      "byteOffset": 166608,
      "componentType": 5126,
      "count": 192,
      "max": [
        0.4872349798679352,
        0.4980871081352234
      ],
      "min": [
        0.005843999795615673,
        0.28922736644744873
      ],
      "type": "VEC2"
    },
    {
      "bufferView": 1,
      "byteOffset": 168144,
      "componentType": 5126,
      "count": 192,
      "max": [
        0.4872349798679352,
        0.4980871081352234
      ],
      "min": [
        0.005843999795615673,
        0.28922736644744873
      ],
      "type": "VEC2"
    },
    {
      "bufferView": 1,
      "byteOffset": 169680,
      "componentType": 5126,
      "count": 192,
      "max": [
        0.4872349798679352,
        0.4980871081352234
      ],
      "min": [
        0.005843999795615673,
        0.28922736644744873
      ],
      "type": "VEC2"
    },
    {
      "bufferView": 1,
      "byteOffset": 171216,
      "componentType": 5126,
      "count": 192,
      "max": [
        0.4872349798679352,
        0.4980871081352234
      ],
      "min": [
        0.005843999795615673,
        0.28922736644744873
      ],
      "type": "VEC2"
    },
    {
      "bufferView": 1,
      "byteOffset": 172752,
      "componentType": 5126,
      "count": 192,
      "max": [
        0.4872349798679352,
        0.4980871081352234
      ],
      "min": [
        0.005843999795615673,
        0.28922736644744873
      ],
      "type": "VEC2"
    },
    {
      "bufferView": 1,
      "byteOffset": 174288,
      "componentType": 5126,
      "count": 192,
      "max": [
        0.4872349798679352,
        0.4980871081352234
      ],
      "min": [
        0.005843999795615673,
        0.28922736644744873
      ],
      "type": "VEC2"
    },
    {
      "bufferView": 1,
      "byteOffset": 175824,
      "componentType": 5126,
      "count": 192,
      "max": [
        0.4872349798679352,
        0.4980871081352234
      ],
      "min": [
        0.005843999795615673,
        0.28922736644744873
      ],
      "type": "VEC2"
    },
    {
      "bufferView": 0,
      "byteOffset": 16320,
      "componentType": 5125,
      "count": 432,
      "type": "SCALAR"
    },
    {
      "bufferView": 2,
      "byteOffset": 53208,
      "componentType": 5126,
      "count": 233,
      "max": [
        1.2053072452545166,
        0.4421290159225464,
        0.2530965805053711
      ],
      "min": [
        -1.2053072452545166,
        -0.4421290159225464,
        -0.235382080078125
      ],
      "type": "VEC3"
    },
    {
      "bufferView": 2,
      "byteOffset": 56004,
      "componentType": 5126,
      "count": 233,
      "max": [
        1.0,
        1.0,
        1.0
      ],
      "min": [
        -1.0,
        -1.0,
        -1.0
      ],
      "type": "VEC3"
    },
    {
      "bufferView": 3,
      "byteOffset": 35472,
      "componentType": 5126,
      "count": 233,
      "max": [
        0.9961626529693604,
        0.9999191761016846,
        0.9990779161453247,
        1.0
      ],
      "min": [
        -0.9999995827674866,
        -0.9998162388801575,
        -0.9471166133880615,
        -1.0
      ],
      "type": "VEC4"
    },
    {
      "bufferView": 1,
      "byteOffset": 177360,
      "componentType": 5126,
      "count": 233,
      "max": [
        0.13197512924671173,
        0.12647032737731934
      ],
      "min": [
        0.0034097880125045776,
        1.0319054126739502e-06
      ],
      "type": "VEC2"
    },
    {
      "bufferView": 1,
      "byteOffset": 179224,
      "componentType": 5126,
      "count": 233,
      "max": [
        0.13197512924671173,
        0.12647032737731934
      ],
      "min": [
        0.0034097880125045776,
        1.0319054126739502e-06
      ],
      "type": "VEC2"
    },
    {
      "bufferView": 1,
      "byteOffset": 181088,
      "componentType": 5126,
      "count": 233,
      "max": [
        0.13197512924671173,
        0.12647032737731934
      ],
      "min": [
        0.0034097880125045776,
        1.0319054126739502e-06
      ],
      "type": "VEC2"
    },
    {
      "bufferView": 1,
      "byteOffset": 182952,
      "componentType": 5126,
      "count": 233,
      "max": [
        0.13197512924671173,
        0.12647032737731934
      ],
      "min": [
        0.0034097880125045776,
        1.0319054126739502e-06
      ],
      "type": "VEC2"
    },
    {
      "bufferView": 1,
      "byteOffset": 184816,
      "componentType": 5126,
      "count": 233,
      "max": [
        0.13197512924671173,
        0.12647032737731934
      ],
      "min": [
        0.0034097880125045776,
        1.0319054126739502e-06
      ],
      "type": "VEC2"
    },
    {
      "bufferView": 1,
      "byteOffset": 186680,
      "componentType": 5126,
      "count": 233,
      "max": [
        0.13197512924671173,
        0.12647032737731934
      ],
      "min": [
        0.0034097880125045776,
        1.0319054126739502e-06
      ],
      "type": "VEC2"
    },
    {
      "bufferView": 1,
      "byteOffset": 188544,
      "componentType": 5126,
      "count": 233,
      "max": [
        0.13197512924671173,
        0.12647032737731934
      ],
      "min": [
        0.0034097880125045776,
        1.0319054126739502e-06
      ],
      "type": "VEC2"
    },
    {
      "bufferView": 1,
      "byteOffset": 190408,
      "componentType": 5126,
      "count": 233,
      "max": [
        0.13197512924671173,
        0.12647032737731934
      ],
      "min": [
        0.0034097880125045776,
        1.0319054126739502e-06
      ],
      "type": "VEC2"
    },
    {
      "bufferView": 1,
      "byteOffset": 192272,
      "componentType": 5126,
      "count": 233,
      "max": [
        0.13197512924671173,
        0.12647032737731934
      ],
      "min": [
        0.0034097880125045776,
        1.0319054126739502e-06
      ],
      "type": "VEC2"
    },
    {
      "bufferView": 1,
      "byteOffset": 194136,
      "componentType": 5126,
      "count": 233,
      "max": [
        0.13197512924671173,
        0.12647032737731934
      ],
      "min": [
        0.0034097880125045776,
        1.0319054126739502e-06
      ],
      "type": "VEC2"
    },
    {
      "bufferView": 0,
      "byteOffset": 18048,
      "componentType": 5125,
      "count": 468,
      "type": "SCALAR"
    },
    {
      "bufferView": 2,
      "byteOffset": 58800,
      "componentType": 5126,
      "count": 1171,
      "max": [
        1.0,
        1.0656887292861938,
        0.6981668472290039
      ],
      "min": [
        -1.0,
        -1.0656888484954834,
        -0.5196199417114258
      ],
      "type": "VEC3"
    },
    {
      "bufferView": 2,
      "byteOffset": 72852,
      "componentType": 5126,
      "count": 1171,
      "max": [
        1.0,
        1.0,
        1.0
      ],
      "min": [
        -1.0,
        -1.0,
        -1.0
      ],
      "type": "VEC3"
    },
    {
      "bufferView": 3,
      "byteOffset": 39200,
      "componentType": 5126,
      "count": 1171,
      "max": [
        0.9999974966049194,
        1.0,
        0.9998763799667358,
        1.0
      ],
      "min": [
        -0.999997079372406,
        -0.9999871850013733,
        -0.9999898672103882,
        1.0
      ],
      "type": "VEC4"
    },
    {
      "bufferView": 1,
      "byteOffset": 196000,
      "componentType": 5126,
      "count": 1171,
      "max": [
        0.7566128969192505,
        0.799645185470581
      ],
      "min": [
        0.6063710451126099,
        0.573712170124054
      ],
      "type": "VEC2"
    },
    {
      "bufferView": 1,
      "byteOffset": 205368,
      "componentType": 5126,
      "count": 1171,
      "max": [
        0.7566128969192505,
        0.799645185470581
      ],
      "min": [
        0.6063710451126099,
        0.573712170124054
      ],
      "type": "VEC2"
    },
    {
      "bufferView": 1,
      "byteOffset": 214736,
      "componentType": 5126,
      "count": 1171,
      "max": [
        0.7566128969192505,
        0.799645185470581
      ],
      "min": [
        0.6063710451126099,
        0.573712170124054
      ],
      "type": "VEC2"
    },
    {
      "bufferView": 1,
      "byteOffset": 224104,
      "componentType": 5126,
      "count": 1171,
      "max": [
        0.7566128969192505,
        0.799645185470581
      ],
      "min": [
        0.6063710451126099,
        0.573712170124054
      ],
      "type": "VEC2"
    },
    {
      "bufferView": 1,
      "byteOffset": 233472,
      "componentType": 5126,
      "count": 1171,
      "max": [
        0.7566128969192505,
        0.799645185470581
      ],
      "min": [
        0.6063710451126099,
        0.573712170124054
      ],
      "type": "VEC2"
    },
    {
      "bufferView": 1,
      "byteOffset": 242840,
      "componentType": 5126,
      "count": 1171,
      "max": [
        0.7566128969192505,
        0.799645185470581
      ],
      "min": [
        0.6063710451126099,
        0.573712170124054
      ],
      "type": "VEC2"
    },
    {
      "bufferView": 1,
      "byteOffset": 252208,
      "componentType": 5126,
      "count": 1171,
      "max": [
        0.7566128969192505,
        0.799645185470581
      ],
      "min": [
        0.6063710451126099,
        0.573712170124054
      ],
      "type": "VEC2"
    },
    {
      "bufferView": 1,
      "byteOffset": 261576,
      "componentType": 5126,
      "count": 1171,
      "max": [
        0.7566128969192505,
        0.799645185470581
      ],
      "min": [
        0.6063710451126099,
        0.573712170124054
      ],
      "type": "VEC2"
    },
    {
      "bufferView": 1,
      "byteOffset": 270944,
      "componentType": 5126,
      "count": 1171,
      "max": [
        0.7566128969192505,
        0.799645185470581
      ],
      "min": [
        0.6063710451126099,
        0.573712170124054
      ],
      "type": "VEC2"
    },
    {
      "bufferView": 1,
      "byteOffset": 280312,
      "componentType": 5126,
      "count": 1171,
      "max": [
        0.7566128969192505,
        0.799645185470581
      ],
      "min": [
        0.6063710451126099,
        0.573712170124054
      ],
      "type": "VEC2"
    },
    {
      "bufferView": 0,
      "byteOffset": 19920,
      "componentType": 5125,
      "count": 3498,
      "type": "SCALAR"
    },
    {
      "bufferView": 2,
      "byteOffset": 86904,
      "componentType": 5126,
      "count": 2991,
      "max": [
        2.6106629371643066,
        0.7204128503799438,
        9.90781021118164
      ],
      "min": [
        -2.6106629371643066,
        -0.7204129099845886,
        -1.229562759399414
      ],
      "type": "VEC3"
    },
    {
      "bufferView": 2,
      "byteOffset": 122796,
      "componentType": 5126,
      "count": 2991,
      "max": [
        1.0,
        1.0,
        1.0
      ],
      "min": [
        -1.0,
        -1.0,
        -1.0
      ],
      "type": "VEC3"
    },
    {
      "bufferView": 3,
      "byteOffset": 57936,
      "componentType": 5126,
      "count": 2991,
      "max": [
        0.9999978542327881,
        0.9996300339698792,
        1.0,
        1.0
      ],
      "min": [
        -0.9999960064888,
        -0.9990304708480835,
        -0.9999998211860657,
        -1.0
      ],
      "type": "VEC4"
    },
    {
      "bufferView": 1,
      "byteOffset": 289680,
      "componentType": 5126,
      "count": 2991,
      "max": [
        0.9515689611434937,
        0.39503511786460876
      ],
      "min": [
        1.043081283569336e-06,
        9.945360943675041e-07
      ],
      "type": "VEC2"
    },
    {
      "bufferView": 1,
      "byteOffset": 313608,
      "componentType": 5126,
      "count": 2991,
      "max": [
        0.9515689611434937,
        0.39503511786460876
      ],
      "min": [
        1.043081283569336e-06,
        9.945360943675041e-07
      ],
      "type": "VEC2"
    },
    {
      "bufferView": 1,
      "byteOffset": 337536,
      "componentType": 5126,
      "count": 2991,
      "max": [
        0.9515689611434937,
        0.39503511786460876
      ],
      "min": [
        1.043081283569336e-06,
        9.945360943675041e-07
      ],
      "type": "VEC2"
    },
    {
      "bufferView": 1,
      "byteOffset": 361464,
      "componentType": 5126,
      "count": 2991,
      "max": [
        0.9515689611434937,
        0.39503511786460876
      ],
      "min": [
        1.043081283569336e-06,
        9.945360943675041e-07
      ],
      "type": "VEC2"
    },
    {
      "bufferView": 1,
      "byteOffset": 385392,
      "componentType": 5126,
      "count": 2991,
      "max": [
        0.9515689611434937,
        0.39503511786460876
      ],
      "min": [
        1.043081283569336e-06,
        9.945360943675041e-07
      ],
      "type": "VEC2"
    },
    {
      "bufferView": 1,
      "byteOffset": 409320,
      "componentType": 5126,
      "count": 2991,
      "max": [
        0.9515689611434937,
        0.39503511786460876
      ],
      "min": [
        1.043081283569336e-06,
        9.945360943675041e-07
      ],
      "type": "VEC2"
    },
    {
      "bufferView": 1,
      "byteOffset": 433248,
      "componentType": 5126,
      "count": 2991,
      "max": [
        0.9515689611434937,
        0.39503511786460876
      ],
      "min": [
        1.043081283569336e-06,
        9.945360943675041e-07
      ],
      "type": "VEC2"
    },
    {
      "bufferView": 1,
      "byteOffset": 457176,
      "componentType": 5126,
      "count": 2991,
      "max": [
        0.9515689611434937,
        0.39503511786460876
      ],
      "min": [
        1.043081283569336e-06,
        9.945360943675041e-07
      ],
      "type": "VEC2"
    },
    {
      "bufferView": 1,
      "byteOffset": 481104,
      "componentType": 5126,
      "count": 2991,
      "max": [
        0.9515689611434937,
        0.39503511786460876
      ],
      "min": [
        1.043081283569336e-06,
        9.945360943675041e-07
      ],
      "type": "VEC2"
    },
    {
      "bufferView": 1,
      "byteOffset": 505032,
      "componentType": 5126,
      "count": 2991,
      "max": [
        0.9515689611434937,
        0.39503511786460876
      ],
      "min": [
        1.043081283569336e-06,
        9.945360943675041e-07
      ],
      "type": "VEC2"
    },
    {
      "bufferView": 0,
      "byteOffset": 33912,
      "componentType": 5125,
      "count": 5181,
      "type": "SCALAR"
    },
    {
      "bufferView": 2,
      "byteOffset": 158688,
      "componentType": 5126,
      "count": 356,
      "max": [
        0.3693692982196808,
        0.3693695068359375,
        0.8794782757759094
      ],
      "min": [
        -0.3693692982196808,
        -0.3693685531616211,
        -0.8794782757759094
      ],
      "type": "VEC3"
    },
    {
      "bufferView": 2,
      "byteOffset": 162960,
      "componentType": 5126,
      "count": 356,
      "max": [
        1.0,
        1.0,
        1.0
      ],
      "min": [
        -1.0,
        -1.0,
        -1.0
      ],
      "type": "VEC3"
    },
    {
      "bufferView": 3,
      "byteOffset": 105792,
      "componentType": 5126,
      "count": 356,
      "max": [
        0.8472374677658081,
        0.9058522582054138,
        0.999977707862854,
        1.0
      ],
      "min": [
        -0.9858524203300476,
        -0.9695757627487183,
        -0.7036793828010559,
        1.0
      ],
      "type": "VEC4"
    },
    {
      "bufferView": 1,
      "byteOffset": 528960,
      "componentType": 5126,
      "count": 356,
      "max": [
        0.25305071473121643,
        0.08693479746580124
      ],
      "min": [
        0.14119619131088257,
        1.0399380698800087e-06
      ],
      "type": "VEC2"
    },
    {
      "bufferView": 1,
      "byteOffset": 531808,
      "componentType": 5126,
      "count": 356,
      "max": [
        0.25305071473121643,
        0.08693479746580124
      ],
      "min": [
        0.14119619131088257,
        1.0399380698800087e-06
      ],
      "type": "VEC2"
    },
    {
      "bufferView": 1,
      "byteOffset": 534656,
      "componentType": 5126,
      "count": 356,
      "max": [
        0.25305071473121643,
        0.08693479746580124
      ],
      "min": [
        0.14119619131088257,
        1.0399380698800087e-06
      ],
      "type": "VEC2"
    },
    {
      "bufferView": 1,
      "byteOffset": 537504,
      "componentType": 5126,
      "count": 356,
      "max": [
        0.25305071473121643,
        0.08693479746580124
      ],
      "min": [
        0.14119619131088257,
        1.0399380698800087e-06
      ],
      "type": "VEC2"
    },
    {
      "bufferView": 1,
      "byteOffset": 540352,
      "componentType": 5126,
      "count": 356,
      "max": [
        0.25305071473121643,
        0.08693479746580124
      ],
      "min": [
        0.14119619131088257,
        1.0399380698800087e-06
      ],
      "type": "VEC2"
    },
    {
      "bufferView": 1,
      "byteOffset": 543200,
      "componentType": 5126,
      "count": 356,
      "max": [
        0.25305071473121643,
        0.08693479746580124
      ],
      "min": [
        0.14119619131088257,
        1.0399380698800087e-06
      ],
      "type": "VEC2"
    },
    {
      "bufferView": 1,
      "byteOffset": 546048,
      "componentType": 5126,
      "count": 356,
      "max": [
        0.25305071473121643,
        0.08693479746580124
      ],
      "min": [
        0.14119619131088257,
        1.0399380698800087e-06
      ],
      "type": "VEC2"
    },
    {
      "bufferView": 1,
      "byteOffset": 548896,
      "componentType": 5126,
      "count": 356,
      "max": [
        0.25305071473121643,
        0.08693479746580124
      ],
      "min": [
        0.14119619131088257,
        1.0399380698800087e-06
      ],
      "type": "VEC2"
    },
    {
      "bufferView": 1,
      "byteOffset": 551744,
      "componentType": 5126,
      "count": 356,
      "max": [
        0.25305071473121643,
        0.08693479746580124
      ],
      "min": [
        0.14119619131088257,
        1.0399380698800087e-06
      ],
      "type": "VEC2"
    },
    {
      "bufferView": 1,
      "byteOffset": 554592,
      "componentType": 5126,
      "count": 356,
      "max": [
        0.25305071473121643,
        0.08693479746580124
      ],
      "min": [
        0.14119619131088257,
        1.0399380698800087e-06
      ],
      "type": "VEC2"
    },
    {
      "bufferView": 0,
      "byteOffset": 54636,
      "componentType": 5125,
      "count": 1344,
      "type": "SCALAR"
    },
    {
      "bufferView": 2,
      "byteOffset": 167232,
      "componentType": 5126,
      "count": 560,
      "max": [
        0.29421451687812805,
        0.29421424865722656,
        0.29421454668045044
      ],
      "min": [
        -0.29421430826187134,
        -0.29421567916870117,
        -2.0183298587799072
      ],
      "type": "VEC3"
    },
    {
      "bufferView": 2,
      "byteOffset": 173952,
      "componentType": 5126,
      "count": 560,
      "max": [
        0.9951848387718201,
        0.9951848983764648,
        1.0
      ],
      "min": [
        -0.9951849579811096,
        -0.9951848983764648,
        -1.0
      ],
      "type": "VEC3"
    },
    {
      "bufferView": 3,
      "byteOffset": 111488,
      "componentType": 5126,
      "count": 560,
      "max": [
        0.5754586458206177,
        0.90840744972229,
        0.9948079586029053,
        1.0
      ],
      "min": [
        -0.9903473854064941,
        -0.9878525137901306,
        -0.9861016869544983,
        1.0
      ],
      "type": "VEC4"
    },
    {
      "bufferView": 1,
      "byteOffset": 557440,
      "componentType": 5126,
      "count": 560,
      "max": [
        0.7360631823539734,
        0.7447457313537598
      ],
      "min": [
        0.5384058356285095,
        0.14325052499771118
      ],
      "type": "VEC2"
    },
    {
      "bufferView": 1,
      "byteOffset": 561920,
      "componentType": 5126,
      "count": 560,
      "max": [
        0.7360631823539734,
        0.7447457313537598
      ],
      "min": [
        0.5384058356285095,
        0.14325052499771118
      ],
      "type": "VEC2"
    },
    {
      "bufferView": 1,
      "byteOffset": 566400,
      "componentType": 5126,
      "count": 560,
      "max": [
        0.7360631823539734,
        0.7447457313537598
      ],
      "min": [
        0.5384058356285095,
        0.14325052499771118
      ],
      "type": "VEC2"
    },
    {
      "bufferView": 1,
      "byteOffset": 570880,
      "componentType": 5126,
      "count": 560,
      "max": [
        0.7360631823539734,
        0.7447457313537598
      ],
      "min": [
        0.5384058356285095,
        0.14325052499771118
      ],
      "type": "VEC2"
    },
    {
      "bufferView": 1,
      "byteOffset": 575360,
      "componentType": 5126,
      "count": 560,
      "max": [
        0.7360631823539734,
        0.7447457313537598
      ],
      "min": [
        0.5384058356285095,
        0.14325052499771118
      ],
      "type": "VEC2"
    },
    {
      "bufferView": 1,
      "byteOffset": 579840,
      "componentType": 5126,
      "count": 560,
      "max": [
        0.7360631823539734,
        0.7447457313537598
      ],
      "min": [
        0.5384058356285095,
        0.14325052499771118
      ],
      "type": "VEC2"
    },
    {
      "bufferView": 1,
      "byteOffset": 584320,
      "componentType": 5126,
      "count": 560,
      "max": [
        0.7360631823539734,
        0.7447457313537598
      ],
      "min": [
        0.5384058356285095,
        0.14325052499771118
      ],
      "type": "VEC2"
    },
    {
      "bufferView": 1,
      "byteOffset": 588800,
      "componentType": 5126,
      "count": 560,
      "max": [
        0.7360631823539734,
        0.7447457313537598
      ],
      "min": [
        0.5384058356285095,
        0.14325052499771118
      ],
      "type": "VEC2"
    },
    {
      "bufferView": 1,
      "byteOffset": 593280,
      "componentType": 5126,
      "count": 560,
      "max": [
        0.7360631823539734,
        0.7447457313537598
      ],
      "min": [
        0.5384058356285095,
        0.14325052499771118
      ],
      "type": "VEC2"
    },
    {
      "bufferView": 1,
      "byteOffset": 597760,
      "componentType": 5126,
      "count": 560,
      "max": [
        0.7360631823539734,
        0.7447457313537598
      ],
      "min": [
        0.5384058356285095,
        0.14325052499771118
      ],
      "type": "VEC2"
    },
    {
      "bufferView": 0,
      "byteOffset": 60012,
      "componentType": 5125,
      "count": 2880,
      "type": "SCALAR"
    },
    {
      "bufferView": 2,
      "byteOffset": 180672,
      "componentType": 5126,
      "count": 4090,
      "max": [
        1.636125087738037,
        1.0612787008285522,
        1.2767517566680908
      ],
      "min": [
        -1.6361163854599,
        -1.0612798929214478,
        -1.2767510414123535
      ],
      "type": "VEC3"
    },
    {
      "bufferView": 2,
      "byteOffset": 229752,
      "componentType": 5126,
      "count": 4090,
      "max": [
        1.0,
        1.0,
        1.0
      ],
      "min": [
        -1.0,
        -1.0,
        -1.0
      ],
      "type": "VEC3"
    },
    {
      "bufferView": 3,
      "byteOffset": 120448,
      "componentType": 5126,
      "count": 4090,
      "max": [
        0.999997615814209,
        0.9999998807907104,
        1.0,
        1.0
      ],
      "min": [
        -0.9999960064888,
        -0.9999755620956421,
        -0.9999929070472717,
        -1.0
      ],
      "type": "VEC4"
    },
    {
      "bufferView": 1,
      "byteOffset": 602240,
      "componentType": 5126,
      "count": 4090,
      "max": [
        0.5955284833908081,
        0.7972959876060486
      ],
      "min": [
        1.043081283569336e-06,
        0.2898196876049042
      ],
      "type": "VEC2"
    },
    {
      "bufferView": 1,
      "byteOffset": 634960,
      "componentType": 5126,
      "count": 4090,
      "max": [
        0.5955284833908081,
        0.7972959876060486
      ],
      "min": [
        1.043081283569336e-06,
        0.2898196876049042
      ],
      "type": "VEC2"
    },
    {
      "bufferView": 1,
      "byteOffset": 667680,
      "componentType": 5126,
      "count": 4090,
      "max": [
        0.5955284833908081,
        0.7972959876060486
      ],
      "min": [
        1.043081283569336e-06,
        0.2898196876049042
      ],
      "type": "VEC2"
    },
    {
      "bufferView": 1,
      "byteOffset": 700400,
      "componentType": 5126,
      "count": 4090,
      "max": [
        0.5955284833908081,
        0.7972959876060486
      ],
      "min": [
        1.043081283569336e-06,
        0.2898196876049042
      ],
      "type": "VEC2"
    },
    {
      "bufferView": 1,
      "byteOffset": 733120,
      "componentType": 5126,
      "count": 4090,
      "max": [
        0.5955284833908081,
        0.7972959876060486
      ],
      "min": [
        1.043081283569336e-06,
        0.2898196876049042
      ],
      "type": "VEC2"
    },
    {
      "bufferView": 1,
      "byteOffset": 765840,
      "componentType": 5126,
      "count": 4090,
      "max": [
        0.5955284833908081,
        0.7972959876060486
      ],
      "min": [
        1.043081283569336e-06,
        0.2898196876049042
      ],
      "type": "VEC2"
    },
    {
      "bufferView": 1,
      "byteOffset": 798560,
      "componentType": 5126,
      "count": 4090,
      "max": [
        0.5955284833908081,
        0.7972959876060486
      ],
      "min": [
        1.043081283569336e-06,
        0.2898196876049042
      ],
      "type": "VEC2"
    },
    {
      "bufferView": 1,
      "byteOffset": 831280,
      "componentType": 5126,
      "count": 4090,
      "max": [
        0.5955284833908081,
        0.7972959876060486
      ],
      "min": [
        1.043081283569336e-06,
        0.2898196876049042
      ],
      "type": "VEC2"
    },
    {
      "bufferView": 1,
      "byteOffset": 864000,
      "componentType": 5126,
      "count": 4090,
      "max": [
        0.5955284833908081,
        0.7972959876060486
      ],
      "min": [
        1.043081283569336e-06,
        0.2898196876049042
      ],
      "type": "VEC2"
    },
    {
      "bufferView": 1,
      "byteOffset": 896720,
      "componentType": 5126,
      "count": 4090,
      "max": [
        0.5955284833908081,
        0.7972959876060486
      ],
      "min": [
        1.043081283569336e-06,
        0.2898196876049042
      ],
      "type": "VEC2"
    },
    {
      "bufferView": 0,
      "byteOffset": 71532,
      "componentType": 5125,
      "count": 12288,
      "type": "SCALAR"
    },
    {
      "bufferView": 2,
      "byteOffset": 278832,
      "componentType": 5126,
      "count": 146,
      "max": [
        1.2832247018814087,
        0.4361022412776947,
        1.4950166940689087
      ],
      "min": [
        -1.6103872060775757,
        -0.4361022412776947,
        -2.070305109024048
      ],
      "type": "VEC3"
    },
    {
      "bufferView": 2,
      "byteOffset": 280584,
      "componentType": 5126,
      "count": 146,
      "max": [
        1.0,
        1.0,
        0.9807854890823364
      ],
      "min": [
        -1.0,
        -1.0,
        -1.0
      ],
      "type": "VEC3"
    },
    {
      "bufferView": 3,
      "byteOffset": 185888,
      "componentType": 5126,
      "count": 146,
      "max": [
        0.9862791299819946,
        0.9997344613075256,
        0.9999614357948303,
        1.0
      ],
      "min": [
        -0.9826195240020752,
        -0.9996445775032043,
        -0.9980955123901367,
        -1.0
      ],
      "type": "VEC4"
    },
    {
      "bufferView": 1,
      "byteOffset": 929440,
      "componentType": 5126,
      "count": 146,
      "max": [
        0.8464475870132446,
        0.14723975956439972
      ],
      "min": [
        0.5915147066116333,
        1.039355993270874e-06
      ],
      "type": "VEC2"
    },
    {
      "bufferView": 1,
      "byteOffset": 930608,
      "componentType": 5126,
      "count": 146,
      "max": [
        0.8464475870132446,
        0.14723975956439972
      ],
      "min": [
        0.5915147066116333,
        1.039355993270874e-06
      ],
      "type": "VEC2"
    },
    {
      "bufferView": 1,
      "byteOffset": 931776,
      "componentType": 5126,
      "count": 146,
      "max": [
        0.8464475870132446,
        0.14723975956439972
      ],
      "min": [
        0.5915147066116333,
        1.039355993270874e-06
      ],
      "type": "VEC2"
    },
    {
      "bufferView": 1,
      "byteOffset": 932944,
      "componentType": 5126,
      "count": 146,
      "max": [
        0.8464475870132446,
        0.14723975956439972
      ],
      "min": [
        0.5915147066116333,
        1.039355993270874e-06
      ],
      "type": "VEC2"
    },
    {
      "bufferView": 1,
      "byteOffset": 934112,
      "componentType": 5126,
      "count": 146,
      "max": [
        0.8464475870132446,
        0.14723975956439972
      ],
      "min": [
        0.5915147066116333,
        1.039355993270874e-06
      ],
      "type": "VEC2"
    },
    {
      "bufferView": 1,
      "byteOffset": 935280,
      "componentType": 5126,
      "count": 146,
      "max": [
        0.8464475870132446,
        0.14723975956439972
      ],
      "min": [
        0.5915147066116333,
        1.039355993270874e-06
      ],
      "type": "VEC2"
    },
    {
      "bufferView": 1,
      "byteOffset": 936448,
      "componentType": 5126,
      "count": 146,
      "max": [
        0.8464475870132446,
        0.14723975956439972
      ],
      "min": [
        0.5915147066116333,
        1.039355993270874e-06
      ],
      "type": "VEC2"
    },
    {
      "bufferView": 1,
      "byteOffset": 937616,
      "componentType": 5126,
      "count": 146,
      "max": [
        0.8464475870132446,
        0.14723975956439972
      ],
      "min": [
        0.5915147066116333,
        1.039355993270874e-06
      ],
      "type": "VEC2"
    },
    {
      "bufferView": 1,
      "byteOffset": 938784,
      "componentType": 5126,
      "count": 146,
      "max": [
        0.8464475870132446,
        0.14723975956439972
      ],
      "min": [
        0.5915147066116333,
        1.039355993270874e-06
      ],
      "type": "VEC2"
    },
    {
      "bufferView": 1,
      "byteOffset": 939952,
      "componentType": 5126,
      "count": 146,
      "max": [
        0.8464475870132446,
        0.14723975956439972
      ],
      "min": [
        0.5915147066116333,
        1.039355993270874e-06
      ],
      "type": "VEC2"
    },
    {
      "bufferView": 0,
      "byteOffset": 120684,
      "componentType": 5125,
      "count": 360,
      "type": "SCALAR"
    },
    {
      "bufferView": 2,
      "byteOffset": 282336,
      "componentType": 5126,
      "count": 843,
      "max": [
        0.4101100265979767,
        0.4101100265979767,
        13.542966842651367
      ],
      "min": [
        -0.4101100265979767,
        -0.4101100265979767,
        0.0
      ],
      "type": "VEC3"
    },
    {
      "bufferView": 2,
      "byteOffset": 292452,
      "componentType": 5126,
      "count": 843,
      "max": [
        1.0,
        1.0,
        1.0
      ],
      "min": [
        -1.0,
        -1.0,
        -1.0
      ],
      "type": "VEC3"
    },
    {
      "bufferView": 3,
      "byteOffset": 188224,
      "componentType": 5126,
      "count": 843,
      "max": [
        0.9999955296516418,
        0.9999921321868896,
        0.8827391266822815,
        1.0
      ],
      "min": [
        -0.9999939203262329,
        -1.0,
        -0.877919614315033,
        1.0
      ],
      "type": "VEC4"
    },
    {
      "bufferView": 1,
      "byteOffset": 941120,
      "componentType": 5126,
      "count": 843,
      "max": [
        0.22268256545066833,
        0.8092607855796814
      ],
      "min": [
        0.08765087276697159,
        0.1002550721168518
      ],
      "type": "VEC2"
    },
    {
      "bufferView": 1,
      "byteOffset": 947864,
      "componentType": 5126,
      "count": 843,
      "max": [
        0.22268256545066833,
        0.8092607855796814
      ],
      "min": [
        0.08765087276697159,
        0.1002550721168518
      ],
      "type": "VEC2"
    },
    {
      "bufferView": 1,
      "byteOffset": 954608,
      "componentType": 5126,
      "count": 843,
      "max": [
        0.22268256545066833,
        0.8092607855796814
      ],
      "min": [
        0.08765087276697159,
        0.1002550721168518
      ],
      "type": "VEC2"
    },
    {
      "bufferView": 1,
      "byteOffset": 961352,
      "componentType": 5126,
      "count": 843,
      "max": [
        0.22268256545066833,
        0.8092607855796814
      ],
      "min": [
        0.08765087276697159,
        0.1002550721168518
      ],
      "type": "VEC2"
    },
    {
      "bufferView": 1,
      "byteOffset": 968096,
      "componentType": 5126,
      "count": 843,
      "max": [
        0.22268256545066833,
        0.8092607855796814
      ],
      "min": [
        0.08765087276697159,
        0.1002550721168518
      ],
      "type": "VEC2"
    },
    {
      "bufferView": 1,
      "byteOffset": 974840,
      "componentType": 5126,
      "count": 843,
      "max": [
        0.22268256545066833,
        0.8092607855796814
      ],
      "min": [
        0.08765087276697159,
        0.1002550721168518
      ],
      "type": "VEC2"
    },
    {
      "bufferView": 1,
      "byteOffset": 981584,
      "componentType": 5126,
      "count": 843,
      "max": [
        0.22268256545066833,
        0.8092607855796814
      ],
      "min": [
        0.08765087276697159,
        0.1002550721168518
      ],
      "type": "VEC2"
    },
    {
      "bufferView": 1,
      "byteOffset": 988328,
      "componentType": 5126,
      "count": 843,
      "max": [
        0.22268256545066833,
        0.8092607855796814
      ],
      "min": [
        0.08765087276697159,
        0.1002550721168518
      ],
      "type": "VEC2"
    },
    {
      "bufferView": 1,
      "byteOffset": 995072,
      "componentType": 5126,
      "count": 843,
      "max": [
        0.22268256545066833,
        0.8092607855796814
      ],
      "min": [
        0.08765087276697159,
        0.1002550721168518
      ],
      "type": "VEC2"
    },
    {
      "bufferView": 1,
      "byteOffset": 1001816,
      "componentType": 5126,
      "count": 843,
      "max": [
        0.22268256545066833,
        0.8092607855796814
      ],
      "min": [
        0.08765087276697159,
        0.1002550721168518
      ],
      "type": "VEC2"
    },
    {
      "bufferView": 0,
      "byteOffset": 122124,
      "componentType": 5125,
      "count": 2688,
      "type": "SCALAR"
    },
    {
      "bufferView": 2,
      "byteOffset": 302568,
      "componentType": 5126,
      "count": 537,
      "max": [
        0.17472966015338898,
        0.17472971975803375,
        0.17473602294921875
      ],
      "min": [
        -0.17472946643829346,
        -0.17472952604293823,
        -0.17472362518310547
      ],
      "type": "VEC3"
    },
    {
      "bufferView": 2,
      "byteOffset": 309012,
      "componentType": 5126,
      "count": 537,
      "max": [
        1.0,
        1.0,
        1.0
      ],
      "min": [
        -1.0,
        -1.0,
        -1.0
      ],
      "type": "VEC3"
    },
    {
      "bufferView": 3,
      "byteOffset": 201712,
      "componentType": 5126,
      "count": 537,
      "max": [
        0.9977896213531494,
        0.9007033705711365,
        0.9988099932670593,
        1.0
      ],
      "min": [
        -0.9999862313270569,
        -0.8505372405052185,
        -0.992074191570282,
        1.0
      ],
      "type": "VEC4"
    },
    {
      "bufferView": 1,
      "byteOffset": 1008560,
      "componentType": 5126,
      "count": 537,
      "max": [
        0.4471316635608673,
        0.5715316534042358
      ],
      "min": [
        0.4040280878543854,
        0.5501589179039001
      ],
      "type": "VEC2"
    },
    {
      "bufferView": 1,
      "byteOffset": 1012856,
      "componentType": 5126,
      "count": 537,
      "max": [
        0.4471316635608673,
        0.5715316534042358
      ],
      "min": [
        0.4040280878543854,
        0.5501589179039001
      ],
      "type": "VEC2"
    },
    {
      "bufferView": 1,
      "byteOffset": 1017152,
      "componentType": 5126,
      "count": 537,
      "max": [
        0.4471316635608673,
        0.5715316534042358
      ],
      "min": [
        0.4040280878543854,
        0.5501589179039001
      ],
      "type": "VEC2"
    },
    {
      "bufferView": 1,
      "byteOffset": 1021448,
      "componentType": 5126,
      "count": 537,
      "max": [
        0.4471316635608673,
        0.5715316534042358
      ],
      "min": [
        0.4040280878543854,
        0.5501589179039001
      ],
      "type": "VEC2"
    },
    {
      "bufferView": 1,
      "byteOffset": 1025744,
      "componentType": 5126,
      "count": 537,
      "max": [
        0.4471316635608673,
        0.5715316534042358
      ],
      "min": [
        0.4040280878543854,
        0.5501589179039001
      ],
      "type": "VEC2"
    },
    {
      "bufferView": 1,
      "byteOffset": 1030040,
      "componentType": 5126,
      "count": 537,
      "max": [
        0.4471316635608673,
        0.5715316534042358
      ],
      "min": [
        0.4040280878543854,
        0.5501589179039001
      ],
      "type": "VEC2"
    },
    {
      "bufferView": 1,
      "byteOffset": 1034336,
      "componentType": 5126,
      "count": 537,
      "max": [
        0.4471316635608673,
        0.5715316534042358
      ],
      "min": [
        0.4040280878543854,
        0.5501589179039001
      ],
      "type": "VEC2"
    },
    {
      "bufferView": 1,
      "byteOffset": 1038632,
      "componentType": 5126,
      "count": 537,
      "max": [
        0.4471316635608673,
        0.5715316534042358
      ],
      "min": [
        0.4040280878543854,
        0.5501589179039001
      ],
      "type": "VEC2"
    },
    {
      "bufferView": 1,
      "byteOffset": 1042928,
      "componentType": 5126,
      "count": 537,
      "max": [
        0.4471316635608673,
        0.5715316534042358
      ],
      "min": [
        0.4040280878543854,
        0.5501589179039001
      ],
      "type": "VEC2"
    },
    {
      "bufferView": 1,
      "byteOffset": 1047224,
      "componentType": 5126,
      "count": 537,
      "max": [
        0.4471316635608673,
        0.5715316534042358
      ],
      "min": [
        0.4040280878543854,
        0.5501589179039001
      ],
      "type": "VEC2"
    },
    {
      "bufferView": 0,
      "byteOffset": 132876,
      "componentType": 5125,
      "count": 2880,
      "type": "SCALAR"
    },
    {
      "bufferView": 2,
      "byteOffset": 315456,
      "componentType": 5126,
      "count": 1575,
      "max": [
        3.4130911827087402,
        1.9904274940490723,
        1.1469154357910156
      ],
      "min": [
        -0.9644100666046143,
        -1.9904271364212036,
        -1.1469182968139648
      ],
      "type": "VEC3"
    },
    {
      "bufferView": 2,
      "byteOffset": 334356,
      "componentType": 5126,
      "count": 1575,
      "max": [
        1.0,
        0.9999849200248718,
        1.0
      ],
      "min": [
        -1.0,
        -0.9999849796295166,
        -1.0
      ],
      "type": "VEC3"
    },
    {
      "bufferView": 3,
      "byteOffset": 210304,
      "componentType": 5126,
      "count": 1575,
      "max": [
        0.999904990196228,
        0.9870060682296753,
        0.9972718954086304,
        1.0
      ],
      "min": [
        -0.9994054436683655,
        -0.9957748651504517,
        -0.9982486963272095,
        -1.0
      ],
      "type": "VEC4"
    },
    {
      "bufferView": 1,
      "byteOffset": 1051520,
      "componentType": 5126,
      "count": 1575,
      "max": [
        0.8478377461433411,
        0.874043345451355
      ],
      "min": [
        0.4426746666431427,
        0.5079711079597473
      ],
      "type": "VEC2"
    },
    {
      "bufferView": 1,
      "byteOffset": 1064120,
      "componentType": 5126,
      "count": 1575,
      "max": [
        0.8478377461433411,
        0.874043345451355
      ],
      "min": [
        0.4426746666431427,
        0.5079711079597473
      ],
      "type": "VEC2"
    },
    {
      "bufferView": 1,
      "byteOffset": 1076720,
      "componentType": 5126,
      "count": 1575,
      "max": [
        0.8478377461433411,
        0.874043345451355
      ],
      "min": [
        0.4426746666431427,
        0.5079711079597473
      ],
      "type": "VEC2"
    },
    {
      "bufferView": 1,
      "byteOffset": 1089320,
      "componentType": 5126,
      "count": 1575,
      "max": [
        0.8478377461433411,
        0.874043345451355
      ],
      "min": [
        0.4426746666431427,
        0.5079711079597473
      ],
      "type": "VEC2"
    },
    {
      "bufferView": 1,
      "byteOffset": 1101920,
      "componentType": 5126,
      "count": 1575,
      "max": [
        0.8478377461433411,
        0.874043345451355
      ],
      "min": [
        0.4426746666431427,
        0.5079711079597473
      ],
      "type": "VEC2"
    },
    {
      "bufferView": 1,
      "byteOffset": 1114520,
      "componentType": 5126,
      "count": 1575,
      "max": [
        0.8478377461433411,
        0.874043345451355
      ],
      "min": [
        0.4426746666431427,
        0.5079711079597473
      ],
      "type": "VEC2"
    },
    {
      "bufferView": 1,
      "byteOffset": 1127120,
      "componentType": 5126,
      "count": 1575,
      "max": [
        0.8478377461433411,
        0.874043345451355
      ],
      "min": [
        0.4426746666431427,
        0.5079711079597473
      ],
      "type": "VEC2"
    },
    {
      "bufferView": 1,
      "byteOffset": 1139720,
      "componentType": 5126,
      "count": 1575,
      "max": [
        0.8478377461433411,
        0.874043345451355
      ],
      "min": [
        0.4426746666431427,
        0.5079711079597473
      ],
      "type": "VEC2"
    },
    {
      "bufferView": 1,
      "byteOffset": 1152320,
      "componentType": 5126,
      "count": 1575,
      "max": [
        0.8478377461433411,
        0.874043345451355
      ],
      "min": [
        0.4426746666431427,
        0.5079711079597473
      ],
      "type": "VEC2"
    },
    {
      "bufferView": 1,
      "byteOffset": 1164920,
      "componentType": 5126,
      "count": 1575,
      "max": [
        0.8478377461433411,
        0.874043345451355
      ],
      "min": [
        0.4426746666431427,
        0.5079711079597473
      ],
      "type": "VEC2"
    },
    {
      "bufferView": 0,
      "byteOffset": 144396,
      "componentType": 5125,
      "count": 3864,
      "type": "SCALAR"
    },
    {
      "bufferView": 2,
      "byteOffset": 353256,
      "componentType": 5126,
      "count": 66,
      "max": [
        0.2497604638338089,
        0.24976050853729248,
        2.136120319366455
      ],
      "min": [
        -0.2497604638338089,
        -0.2497604787349701,
        0.3222823143005371
      ],
      "type": "VEC3"
    },
    {
      "bufferView": 2,
      "byteOffset": 354048,
      "componentType": 5126,
      "count": 66,
      "max": [
        1.0,
        1.0,
        1.674958864097617e-14
      ],
      "min": [
        -1.0,
        -1.0,
        -1.674958864097617e-14
      ],
      "type": "VEC3"
    },
    {
      "bufferView": 3,
      "byteOffset": 235504,
      "componentType": 5126,
      "count": 66,
      "max": [
        0.984311580657959,
        0.9971951246261597,
        0.17808526754379272,
        1.0
      ],
      "min": [
        -0.9999856352806091,
        -0.9982790350914001,
        -0.20863527059555054,
        1.0
      ],
      "type": "VEC4"
    },
    {
      "bufferView": 1,
      "byteOffset": 1177520,
      "componentType": 5126,
      "count": 66,
      "max": [
        0.44979435205459595,
        0.8941923975944519
      ],
      "min": [
        0.37453797459602356,
        0.8370469808578491
      ],
      "type": "VEC2"
    },
    {
      "bufferView": 1,
      "byteOffset": 1178048,
      "componentType": 5126,
      "count": 66,
      "max": [
        0.44979435205459595,
        0.8941923975944519
      ],
      "min": [
        0.37453797459602356,
        0.8370469808578491
      ],
      "type": "VEC2"
    },
    {
      "bufferView": 1,
      "byteOffset": 1178576,
      "componentType": 5126,
      "count": 66,
      "max": [
        0.44979435205459595,
        0.8941923975944519
      ],
      "min": [
        0.37453797459602356,
        0.8370469808578491
      ],
      "type": "VEC2"
    },
    {
      "bufferView": 1,
      "byteOffset": 1179104,
      "componentType": 5126,
      "count": 66,
      "max": [
        0.44979435205459595,
        0.8941923975944519
      ],
      "min": [
        0.37453797459602356,
        0.8370469808578491
      ],
      "type": "VEC2"
    },
    {
      "bufferView": 1,
      "byteOffset": 1179632,
      "componentType": 5126,
      "count": 66,
      "max": [
        0.44979435205459595,
        0.8941923975944519
      ],
      "min": [
        0.37453797459602356,
        0.8370469808578491
      ],
      "type": "VEC2"
    },
    {
      "bufferView": 1,
      "byteOffset": 1180160,
      "componentType": 5126,
      "count": 66,
      "max": [
        0.44979435205459595,
        0.8941923975944519
      ],
      "min": [
        0.37453797459602356,
        0.8370469808578491
      ],
      "type": "VEC2"
    },
    {
      "bufferView": 1,
      "byteOffset": 1180688,
      "componentType": 5126,
      "count": 66,
      "max": [
        0.44979435205459595,
        0.8941923975944519
      ],
      "min": [
        0.37453797459602356,
        0.8370469808578491
      ],
      "type": "VEC2"
    },
    {
      "bufferView": 1,
      "byteOffset": 1181216,
      "componentType": 5126,
      "count": 66,
      "max": [
        0.44979435205459595,
        0.8941923975944519
      ],
      "min": [
        0.37453797459602356,
        0.8370469808578491
      ],
      "type": "VEC2"
    },
    {
      "bufferView": 1,
      "byteOffset": 1181744,
      "componentType": 5126,
      "count": 66,
      "max": [
        0.44979435205459595,
        0.8941923975944519
      ],
      "min": [
        0.37453797459602356,
        0.8370469808578491
      ],
      "type": "VEC2"
    },
    {
      "bufferView": 1,
      "byteOffset": 1182272,
      "componentType": 5126,
      "count": 66,
      "max": [
        0.44979435205459595,
        0.8941923975944519
      ],
      "min": [
        0.37453797459602356,
        0.8370469808578491
      ],
      "type": "VEC2"
    },
    {
      "bufferView": 0,
      "byteOffset": 159852,
      "componentType": 5125,
      "count": 192,
      "type": "SCALAR"
    },
    {
      "bufferView": 2,
      "byteOffset": 354840,
      "componentType": 5126,
      "count": 264,
      "max": [
        1.636125087738037,
        1.0612787008285522,
        0.6297259330749512
      ],
      "min": [
        -1.6361163854599,
        -1.0612798929214478,
        -0.6297249794006348
      ],
      "type": "VEC3"
    },
    {
      "bufferView": 2,
      "byteOffset": 358008,
      "componentType": 5126,
      "count": 264,
      "max": [
        1.0,
        1.0,
        1.6749590335042065e-14
      ],
      "min": [
        -1.0,
        -1.0,
        -1.6749590335042065e-14
      ],
      "type": "VEC3"
    },
    {
      "bufferView": 3,
      "byteOffset": 236560,
      "componentType": 5126,
      "count": 264,
      "max": [
        0.9999260902404785,
        0.9999157190322876,
        0.024305619299411774,
        1.0
      ],
      "min": [
        -0.9999402165412903,
        -0.9999244809150696,
        -0.025317691266536713,
        1.0
      ],
      "type": "VEC4"
    },
    {
      "bufferView": 1,
      "byteOffset": 1182800,
      "componentType": 5126,
      "count": 264,
      "max": [
        0.7458022236824036,
        0.8947258591651917
      ],
      "min": [
        1.0468065738677979e-06,
        0.8072679042816162
      ],
      "type": "VEC2"
    },
    {
      "bufferView": 1,
      "byteOffset": 1184912,
      "componentType": 5126,
      "count": 264,
      "max": [
        0.7458022236824036,
        0.8947258591651917
      ],
      "min": [
        1.0468065738677979e-06,
        0.8072679042816162
      ],
      "type": "VEC2"
    },
    {
      "bufferView": 1,
      "byteOffset": 1187024,
      "componentType": 5126,
      "count": 264,
      "max": [
        0.7458022236824036,
        0.8947258591651917
      ],
      "min": [
        1.0468065738677979e-06,
        0.8072679042816162
      ],
      "type": "VEC2"
    },
    {
      "bufferView": 1,
      "byteOffset": 1189136,
      "componentType": 5126,
      "count": 264,
      "max": [
        0.7458022236824036,
        0.8947258591651917
      ],
      "min": [
        1.0468065738677979e-06,
        0.8072679042816162
      ],
      "type": "VEC2"
    },
    {
      "bufferView": 1,
      "byteOffset": 1191248,
      "componentType": 5126,
      "count": 264,
      "max": [
        0.7458022236824036,
        0.8947258591651917
      ],
      "min": [
        1.0468065738677979e-06,
        0.8072679042816162
      ],
      "type": "VEC2"
    },
    {
      "bufferView": 1,
      "byteOffset": 1193360,
      "componentType": 5126,
      "count": 264,
      "max": [
        0.7458022236824036,
        0.8947258591651917
      ],
      "min": [
        1.0468065738677979e-06,
        0.8072679042816162
      ],
      "type": "VEC2"
    },
    {
      "bufferView": 1,
      "byteOffset": 1195472,
      "componentType": 5126,
      "count": 264,
      "max": [
        0.7458022236824036,
        0.8947258591651917
      ],
      "min": [
        1.0468065738677979e-06,
        0.8072679042816162
      ],
      "type": "VEC2"
    },
    {
      "bufferView": 1,
      "byteOffset": 1197584,
      "componentType": 5126,
      "count": 264,
      "max": [
        0.7458022236824036,
        0.8947258591651917
      ],
      "min": [
        1.0468065738677979e-06,
        0.8072679042816162
      ],
      "type": "VEC2"
    },
    {
      "bufferView": 1,
      "byteOffset": 1199696,
      "componentType": 5126,
      "count": 264,
      "max": [
        0.7458022236824036,
        0.8947258591651917
      ],
      "min": [
        1.0468065738677979e-06,
        0.8072679042816162
      ],
      "type": "VEC2"
    },
    {
      "bufferView": 1,
      "byteOffset": 1201808,
      "componentType": 5126,
      "count": 264,
      "max": [
        0.7458022236824036,
        0.8947258591651917
      ],
      "min": [
        1.0468065738677979e-06,
        0.8072679042816162
      ],
      "type": "VEC2"
    },
    {
      "bufferView": 0,
      "byteOffset": 160620,
      "componentType": 5125,
      "count": 768,
      "type": "SCALAR"
    }
  ],
  "asset": {
    "extras": {
      "author": "Dackmarr (https://sketchfab.com/Dackmarr)",
      "license": "CC-BY-4.0 (http://creativecommons.org/licenses/by/4.0/)",
      "source": "https://sketchfab.com/3d-models/antenna-verno1-6d630159e7b74337afd45c638fb0149f",
      "title": "Antenna ver.№1"
    },
    "generator": "Sketchfab-16.12.0",
    "version": "2.0"
  },
  "bufferViews": [
    {
      "buffer": 0,
      "byteLength": 163692,
      "name": "floatBufferViews",
      "target": 34963
    },
    {
      "buffer": 0,
      "byteLength": 1203920,
      "byteOffset": 163692,
      "byteStride": 8,
      "name": "floatBufferViews",
      "target": 34962
    },
    {
      "buffer": 0,
      "byteLength": 361176,
      "byteOffset": 1367612,
      "byteStride": 12,
      "name": "floatBufferViews",
      "target": 34962
    },
    {
      "buffer": 0,
      "byteLength": 240784,
      "byteOffset": 1728788,
      "byteStride": 16,
      "name": "floatBufferViews",
      "target": 34962
    }
  ],
  "buffers": [
    {
      "byteLength": 1969572,
      "uri": "scene.bin"
    }
  ],
  "images": [
    {
      "uri": "textures/DefaultMaterial_baseColor.png"
    },
    {
      "uri": "textures/DefaultMaterial_metallicRoughness.png"
    },
    {
      "uri": "textures/DefaultMaterial_emissive.png"
    },
    {
      "uri": "textures/DefaultMaterial_normal.png"
    }
  ],
  "materials": [
    {
      "alphaMode": "BLEND",
      "doubleSided": true,
      "emissiveFactor": [
        1.0,
        1.0,
        1.0
      ],
      "emissiveTexture": {
        "index": 2
      },
      "name": "DefaultMaterial",
      "normalTexture": {
        "index": 3
      },
      "occlusionTexture": {
        "index": 1
      },
      "pbrMetallicRoughness": {
        "baseColorTexture": {
          "index": 0
        },
        "metallicRoughnessTexture": {
          "index": 1
        }
      }
    }
  ],
  "meshes": [
    {
      "name": "Cube_DefaultMaterial_0",
      "primitives": [
        {
          "attributes": {
            "NORMAL": 1,
            "POSITION": 0,
            "TANGENT": 2,
            "TEXCOORD_0": 3,
            "TEXCOORD_1": 4,
            "TEXCOORD_2": 5,
            "TEXCOORD_3": 6,
            "TEXCOORD_4": 7,
            "TEXCOORD_5": 8,
            "TEXCOORD_6": 9,
            "TEXCOORD_7": 10,
            "TEXCOORD_8": 11,
            "TEXCOORD_9": 12
          },
          "indices": 13,
          "material": 0,
          "mode": 4
        }
      ]
    },
    {
      "name": "Cube.002_DefaultMaterial_0",
      "primitives": [
        {
          "attributes": {
            "NORMAL": 15,
            "POSITION": 14,
            "TANGENT": 16,
            "TEXCOORD_0": 17,
            "TEXCOORD_1": 18,
            "TEXCOORD_2": 19,
            "TEXCOORD_3": 20,
            "TEXCOORD_4": 21,
            "TEXCOORD_5": 22,
            "TEXCOORD_6": 23,
            "TEXCOORD_7": 24,
            "TEXCOORD_8": 25,
            "TEXCOORD_9": 26
          },
          "indices": 27,
          "material": 0,
          "mode": 4
        }
      ]
    },
    {
      "name": "Cube.001_DefaultMaterial_0",
      "primitives": [
        {
          "attributes": {
            "NORMAL": 29,
            "POSITION": 28,
            "TANGENT": 30,
            "TEXCOORD_0": 31,
            "TEXCOORD_1": 32,
            "TEXCOORD_2": 33,
            "TEXCOORD_3": 34,
            "TEXCOORD_4": 35,
            "TEXCOORD_5": 36,
            "TEXCOORD_6": 37,
            "TEXCOORD_7": 38,
            "TEXCOORD_8": 39,
            "TEXCOORD_9": 40
          },
          "indices": 41,
          "material": 0,
          "mode": 4
        }
      ]
    },
    {
      "name": "Cube.003_DefaultMaterial_0",
      "primitives": [
        {
          "attributes": {
            "NORMAL": 43,
            "POSITION": 42,
            "TANGENT": 44,
            "TEXCOORD_0": 45,
            "TEXCOORD_1": 46,
            "TEXCOORD_2": 47,
            "TEXCOORD_3": 48,
            "TEXCOORD_4": 49,
            "TEXCOORD_5": 50,
            "TEXCOORD_6": 51,
            "TEXCOORD_7": 52,
            "TEXCOORD_8": 53,
            "TEXCOORD_9": 54
          },
          "indices": 55,
          "material": 0,
          "mode": 4
        }
      ]
    },
    {
      "name": "Cube.004_DefaultMaterial_0",
      "primitives": [
        {
          "attributes": {
            "NORMAL": 57,
            "POSITION": 56,
            "TANGENT": 58,
            "TEXCOORD_0": 59,
            "TEXCOORD_1": 60,
            "TEXCOORD_2": 61,
            "TEXCOORD_3": 62,
            "TEXCOORD_4": 63,
            "TEXCOORD_5": 64,
            "TEXCOORD_6": 65,
            "TEXCOORD_7": 66,
            "TEXCOORD_8": 67,
            "TEXCOORD_9": 68
          },
          "indices": 69,
          "material": 0,
          "mode": 4
        }
      ]
    },
    {
      "name": "Cube.005_DefaultMaterial_0",
      "primitives": [
        {
          "attributes": {
            "NORMAL": 71,
            "POSITION": 70,
            "TANGENT": 72,
            "TEXCOORD_0": 73,
            "TEXCOORD_1": 74,
            "TEXCOORD_2": 75,
            "TEXCOORD_3": 76,
            "TEXCOORD_4": 77,
            "TEXCOORD_5": 78,
            "TEXCOORD_6": 79,
            "TEXCOORD_7": 80,
            "TEXCOORD_8": 81,
            "TEXCOORD_9": 82
          },
          "indices": 83,
          "material": 0,
          "mode": 4
        }
      ]
    },
    {
      "name": "Cube.006_DefaultMaterial_0",
      "primitives": [
        {
          "attributes": {
            "NORMAL": 85,
            "POSITION": 84,
            "TANGENT": 86,
            "TEXCOORD_0": 87,
            "TEXCOORD_1": 88,
            "TEXCOORD_2": 89,
            "TEXCOORD_3": 90,
            "TEXCOORD_4": 91,
            "TEXCOORD_5": 92,
            "TEXCOORD_6": 93,
            "TEXCOORD_7": 94,
            "TEXCOORD_8": 95,
            "TEXCOORD_9": 96
          },
          "indices": 97,
          "material": 0,
          "mode": 4
        }
      ]
    },
    {
      "name": "Cylinder_DefaultMaterial_0",
      "primitives": [
        {
          "attributes": {
            "NORMAL": 99,
            "POSITION": 98,
            "TANGENT": 100,
            "TEXCOORD_0": 101,
            "TEXCOORD_1": 102,
            "TEXCOORD_2": 103,
            "TEXCOORD_3": 104,
            "TEXCOORD_4": 105,
            "TEXCOORD_5": 106,
            "TEXCOORD_6": 107,
            "TEXCOORD_7": 108,
            "TEXCOORD_8": 109,
            "TEXCOORD_9": 110
          },
          "indices": 111,
          "material": 0,
          "mode": 4
        }
      ]
    },
    {
      "name": "Cube.007_DefaultMaterial_0",
      "primitives": [
        {
          "attributes": {
            "NORMAL": 113,
            "POSITION": 112,
            "TANGENT": 114,
            "TEXCOORD_0": 115,
            "TEXCOORD_1": 116,
            "TEXCOORD_2": 117,
            "TEXCOORD_3": 118,
            "TEXCOORD_4": 119,
            "TEXCOORD_5": 120,
            "TEXCOORD_6": 121,
            "TEXCOORD_7": 122,
            "TEXCOORD_8": 123,
            "TEXCOORD_9": 124
          },
          "indices": 125,
          "material": 0,
          "mode": 4
        }
      ]
    },
    {
      "name": "Cylinder.001_DefaultMaterial_0",
      "primitives": [
        {
          "attributes": {
            "NORMAL": 127,
            "POSITION": 126,
            "TANGENT": 128,
            "TEXCOORD_0": 129,
            "TEXCOORD_1": 130,
            "TEXCOORD_2": 131,
            "TEXCOORD_3": 132,
            "TEXCOORD_4": 133,
            "TEXCOORD_5": 134,
            "TEXCOORD_6": 135,
            "TEXCOORD_7": 136,
            "TEXCOORD_8": 137,
            "TEXCOORD_9": 138
          },
          "indices": 139,
          "material": 0,
          "mode": 4
        }
      ]
    },
    {
      "name": "Sphere_DefaultMaterial_0",
      "primitives": [
        {
          "attributes": {
            "NORMAL": 141,
            "POSITION": 140,
            "TANGENT": 142,
            "TEXCOORD_0": 143,
            "TEXCOORD_1": 144,
            "TEXCOORD_2": 145,
            "TEXCOORD_3": 146,
            "TEXCOORD_4": 147,
            "TEXCOORD_5": 148,
            "TEXCOORD_6": 149,
            "TEXCOORD_7": 150,
            "TEXCOORD_8": 151,
            "TEXCOORD_9": 152
          },
          "indices": 153,
          "material": 0,
          "mode": 4
        }
      ]
    },
    {
      "name": "Cylinder.002_DefaultMaterial_0",
      "primitives": [
        {
          "attributes": {
            "NORMAL": 155,
            "POSITION": 154,
            "TANGENT": 156,
            "TEXCOORD_0": 157,
            "TEXCOORD_1": 158,
            "TEXCOORD_2": 159,
            "TEXCOORD_3": 160,
            "TEXCOORD_4": 161,
            "TEXCOORD_5": 162,
            "TEXCOORD_6": 163,
            "TEXCOORD_7": 164,
            "TEXCOORD_8": 165,
            "TEXCOORD_9": 166
          },
          "indices": 167,
          "material": 0,
          "mode": 4
        }
      ]
    },
    {
      "name": "Cube.008_DefaultMaterial_0",
      "primitives": [
        {
          "attributes": {
            "NORMAL": 169,
            "POSITION": 168,
            "TANGENT": 170,
            "TEXCOORD_0": 171,
            "TEXCOORD_1": 172,
            "TEXCOORD_2": 173,
            "TEXCOORD_3": 174,
            "TEXCOORD_4": 175,
            "TEXCOORD_5": 176,
            "TEXCOORD_6": 177,
            "TEXCOORD_7": 178,
            "TEXCOORD_8": 179,
            "TEXCOORD_9": 180
          },
          "indices": 181,
          "material": 0,
          "mode": 4
        }
      ]
    },
    {
      "name": "Circle_DefaultMaterial_0",
      "primitives": [
        {
          "attributes": {
            "NORMAL": 183,
            "POSITION": 182,
            "TANGENT": 184,
            "TEXCOORD_0": 185,
            "TEXCOORD_1": 186,
            "TEXCOORD_2": 187,
            "TEXCOORD_3": 188,
            "TEXCOORD_4": 189,
            "TEXCOORD_5": 190,
            "TEXCOORD_6": 191,
            "TEXCOORD_7": 192,
            "TEXCOORD_8": 193,
            "TEXCOORD_9": 194
          },
          "indices": 195,
          "material": 0,
          "mode": 4
        }
      ]
    },
    {
      "name": "Sphere.001_DefaultMaterial_0",
      "primitives": [
        {
          "attributes": {
            "NORMAL": 197,
            "POSITION": 196,
            "TANGENT": 198,
            "TEXCOORD_0": 199,
            "TEXCOORD_1": 200,
            "TEXCOORD_2": 201,
            "TEXCOORD_3": 202,
            "TEXCOORD_4": 203,
            "TEXCOORD_5": 204,
            "TEXCOORD_6": 205,
            "TEXCOORD_7": 206,
            "TEXCOORD_8": 207,
            "TEXCOORD_9": 208
          },
          "indices": 209,
          "material": 0,
          "mode": 4
        }
      ]
    },
    {
      "name": "Sphere.002_DefaultMaterial_0",
      "primitives": [
        {
          "attributes": {
            "NORMAL": 211,
            "POSITION": 210,
            "TANGENT": 212,
            "TEXCOORD_0": 213,
            "TEXCOORD_1": 214,
            "TEXCOORD_2": 215,
            "TEXCOORD_3": 216,
            "TEXCOORD_4": 217,
            "TEXCOORD_5": 218,
            "TEXCOORD_6": 219,
            "TEXCOORD_7": 220,
            "TEXCOORD_8": 221,
            "TEXCOORD_9": 222
          },
          "indices": 223,
          "material": 0,
          "mode": 4
        }
      ]
    },
    {
      "name": "Circle.001_DefaultMaterial_0",
      "primitives": [
        {
          "attributes": {
            "NORMAL": 225,
            "POSITION": 224,
            "TANGENT": 226,
            "TEXCOORD_0": 227,
            "TEXCOORD_1": 228,
            "TEXCOORD_2": 229,
            "TEXCOORD_3": 230,
            "TEXCOORD_4": 231,
            "TEXCOORD_5": 232,
            "TEXCOORD_6": 233,
            "TEXCOORD_7": 234,
            "TEXCOORD_8": 235,
            "TEXCOORD_9": 236
          },
          "indices": 237,
          "material": 0,
          "mode": 4
        }
      ]
    },
    {
      "name": "Cylinder.003_DefaultMaterial_0",
      "primitives": [
        {
          "attributes": {
            "NORMAL": 239,
            "POSITION": 238,
            "TANGENT": 240,
            "TEXCOORD_0": 241,
            "TEXCOORD_1": 242,
            "TEXCOORD_2": 243,
            "TEXCOORD_3": 244,
            "TEXCOORD_4": 245,
            "TEXCOORD_5": 246,
            "TEXCOORD_6": 247,
            "TEXCOORD_7": 248,
            "TEXCOORD_8": 249,
            "TEXCOORD_9": 250
          },
          "indices": 251,
          "material": 0,
          "mode": 4
        }
      ]
    }
  ],
  "nodes": [
    {
      "children": [
        1
      ],
      "matrix": [
        1.0,
        0.0,
        0.0,
        0.0,
        0.0,
        2.220446049250313e-16,
        -1.0,
        0.0,
        0.0,
        1.0,
        2.220446049250313e-16,
        0.0,
        0.0,
        0.0,
        0.0,
        1.0
      ],
      "name": "Sketchfab_model"
    },
    {
      "children": [
        2
      ],
      "matrix": [
        0.009999999776482582,
        0.0,
        0.0,
        0.0,
        0.0,
        0.0,
        0.009999999776482582,
        0.0,
        0.0,
        -0.009999999776482582,
        0.0,
        0.0,
        0.0,
        0.0,
        0.0,
        1.0
      ],
      "name": "3b3654aacee940b28c307e5a7de59404.fbx"
    },
    {
      "children": [
        3,
        5,
        7,
        9,
        11,
        13,
        15,
        17,
        19,
        21,
        23,
        25,
        27,
        29,
        31,
        33,
        35,
        37
      ],
      "name": "RootNode"
    },
    {
      "children": [
        4
      ],
      "matrix": [
        100.0,
        0.0,
        0.0,
        0.0,
        0.0,
        -1.331580541386046e-05,
        -99.99999999999912,
        0.0,
        0.0,
        99.99999999999912,
        -1.331580541386046e-05,
        0.0,
        0.0,
        45.48625183105469,
        0.0,
        1.0
      ],
      "name": "Cube"
    },
    {
      "mesh": 0,
      "name": "Cube_DefaultMaterial_0"
    },
    {
      "children": [
        6
      ],
      "matrix": [
        2.220446049250313e-14,
        5.551115123125783e-15,
        100.0,
        0.0,
        99.99999999999912,
        -1.331580545826938e-05,
        -1.6653345369377348e-14,
        0.0,
        1.3315805463820496e-05,
        99.99999999999912,
        0.0,
        0.0,
        0.0,
        17.170364379882813,
        1.814132156141568e-05,
        1.0
      ],
      "name": "Cube.002"
    },
    {
      "mesh": 1,
      "name": "Cube.002_DefaultMaterial_0"
    },
    {
      "children": [
        8
      ],
      "matrix": [
        100.0,
        0.0,
        0.0,
        0.0,
        0.0,
        -1.331580541386046e-05,
        -99.99999999999912,
        0.0,
        0.0,
        99.99999999999912,
        -1.331580541386046e-05,
        0.0,
        2.591506245153141e-07,
        30.869007110595703,
        0.0,
        1.0
      ],
      "name": "Cube.001"
    },
    {
      "mesh": 2,
      "name": "Cube.001_DefaultMaterial_0"
    },
    {
      "children": [
        10
      ],
      "matrix": [
        100.0,
        0.0,
        0.0,
        0.0,
        0.0,
        -1.331580541386046e-05,
        -99.99999999999912,
        0.0,
        0.0,
        99.99999999999912,
        -1.331580541386046e-05,
        0.0,
        0.0,
        105.08834075927734,
        0.0,
        1.0
      ],
      "name": "Cube.003"
    },
    {
      "mesh": 3,
      "name": "Cube.003_DefaultMaterial_0"
    },
    {
      "children": [
        12
      ],
      "matrix": [
        100.0,
        0.0,
        0.0,
        0.0,
        0.0,
        -1.331580541386046e-05,
        -99.99999999999912,
        0.0,
        0.0,
        99.99999999999912,
        -1.331580541386046e-05,
        0.0,
        0.0,
        133.66844177246094,
        -5.9604644775390625e-06,
        1.0
      ],
      "name": "Cube.004"
    },
    {
      "mesh": 4,
      "name": "Cube.004_DefaultMaterial_0"
    },
    {
      "children": [
        14
      ],
      "matrix": [
        8.354560760341059,
        -4.247936137133317,
        99.55980527902692,
        0.0,
        90.6873174984109,
        -41.087016591227396,
        -9.36309310936408,
        0.0,
        41.3038919289336,
        91.07036201705994,
        0.4196995660863215,
        0.0,
        0.6389975547790527,
        38.869293212890625,
        7.613562047481537e-06,
        1.0
      ],
      "name": "Cube.005"
    },
    {
      "mesh": 5,
      "name": "Cube.005_DefaultMaterial_0"
    },
    {
      "children": [
        16
      ],
      "matrix": [
        100.0,
        0.0,
        0.0,
        0.0,
        0.0,
        -1.331580541386046e-05,
        -99.99999999999912,
        0.0,
        0.0,
        99.99999999999912,
        -1.331580541386046e-05,
        0.0,
        0.0,
        307.307373046875,
        0.0,
        1.0
      ],
      "name": "Cube.006"
    },
    {
      "mesh": 6,
      "name": "Cube.006_DefaultMaterial_0"
    },
    {
      "children": [
        18
      ],
      "matrix": [
        100.0,
        0.0,
        0.0,
        0.0,
        0.0,
        -1.331580541386046e-05,
        -99.99999999999912,
        0.0,
        0.0,
        99.99999999999912,
        -1.331580541386046e-05,
        0.0,
        0.0,
        140.69065856933594,
        0.0,
        1.0
      ],
      "name": "Cylinder"
    },
    {
      "mesh": 7,
      "name": "Cylinder_DefaultMaterial_0"
    },
    {
      "children": [
        20
      ],
      "matrix": [
        100.0,
        0.0,
        0.0,
        0.0,
        0.0,
        -1.331580541386046e-05,
        -99.99999999999912,
        0.0,
        0.0,
        99.99999999999912,
        -1.331580541386046e-05,
        0.0,
        0.0,
        447.37237548828125,
        0.0,
        1.0
      ],
      "name": "Cube.007"
    },
    {
      "mesh": 8,
      "name": "Cube.007_DefaultMaterial_0"
    },
    {
      "children": [
        22
      ],
      "matrix": [
        100.0,
        0.0,
        0.0,
        0.0,
        0.0,
        99.9999999999999,
        4.371138424667073e-06,
        0.0,
        0.0,
        -4.371138424667073e-06,
        99.9999999999999,
        0.0,
        0.0,
        412.0992126464844,
        0.0,
        1.0
      ],
      "name": "Cylinder.001"
    },
    {
      "mesh": 9,
      "name": "Cylinder.001_DefaultMaterial_0"
    },
    {
      "children": [
        24
      ],
      "matrix": [
        100.0,
        0.0,
        0.0,
        0.0,
        0.0,
        99.9999999999999,
        4.371138424667073e-06,
        0.0,
        0.0,
        -4.371138424667073e-06,
        99.9999999999999,
        0.0,
        0.0,
        412.17559814453125,
        86.27693939208984,
        1.0
      ],
      "name": "Sphere"
    },
    {
      "mesh": 10,
      "name": "Sphere_DefaultMaterial_0"
    },
    {
      "children": [
        26
      ],
      "matrix": [
        100.0,
        0.0,
        0.0,
        0.0,
        -0.0,
        -1.331580541386046e-05,
        -99.99999999999912,
        0.0,
        0.0,
        99.99999999999912,
        -1.331580541386046e-05,
        0.0,
        -0.0004410743713378906,
        507.0616760253906,
        -5.9604644775390625e-05,
        1.0
      ],
      "name": "Cylinder.002"
    },
    {
      "mesh": 11,
      "name": "Cylinder.002_DefaultMaterial_0"
    },
    {
      "children": [
        28
      ],
      "matrix": [
        49.999999999999886,
        86.60254037844366,
        6.735386909317853e-06,
        0.0,
        1.4899519246158732e-05,
        -8.248865590587684e-07,
        -99.99999999999889,
        0.0,
        -86.60254037844264,
        50.000000000000334,
        -1.331580545826938e-05,
        0.0,
        -2.384185791015625e-05,
        818.9194946289063,
        6.561224950019096e-07,
        1.0
      ],
      "name": "Cube.008"
    },
    {
      "mesh": 12,
      "name": "Cube.008_DefaultMaterial_0"
    },
    {
      "children": [
        30
      ],
      "matrix": [
        100.0,
        0.0,
        0.0,
        0.0,
        0.0,
        -1.331580541386046e-05,
        -99.99999999999912,
        0.0,
        0.0,
        99.99999999999912,
        -1.331580541386046e-05,
        0.0,
        0.0,
        499.19732666015625,
        0.0,
        1.0
      ],
      "name": "Circle"
    },
    {
      "mesh": 13,
      "name": "Circle_DefaultMaterial_0"
    },
    {
      "children": [
        32
      ],
      "matrix": [
        100.0,
        0.0,
        0.0,
        0.0,
        0.0,
        -1.331580541386046e-05,
        -99.99999999999912,
        0.0,
        0.0,
        99.99999999999912,
        -1.331580541386046e-05,
        0.0,
        0.0,
        1868.1451416015625,
        0.0,
        1.0
      ],
      "name": "Sphere.001"
    },
    {
      "mesh": 14,
      "name": "Sphere.001_DefaultMaterial_0"
    },
    {
      "children": [
        34
      ],
      "matrix": [
        100.0,
        5.746936133398857e-15,
        -7.565991699026834e-16,
        0.0,
        7.565979016774277e-16,
        -25.881906484884727,
        -96.59258999833605,
        0.0,
        -5.746936746419811e-15,
        96.59258999833605,
        -25.881906484884727,
        0.0,
        -122.2386245727539,
        1661.0035400390625,
        -3.307689985376783e-05,
        1.0
      ],
      "name": "Sphere.002"
    },
    {
      "mesh": 15,
      "name": "Sphere.002_DefaultMaterial_0"
    },
    {
      "children": [
        36
      ],
      "matrix": [
        100.0,
        0.0,
        0.0,
        0.0,
        0.0,
        -1.331580541386046e-05,
        -99.99999999999912,
        0.0,
        0.0,
        99.99999999999912,
        -1.331580541386046e-05,
        0.0,
        0.0,
        499.19732666015625,
        0.0,
        1.0
      ],
      "name": "Circle.001"
    },
    {
      "mesh": 16,
      "name": "Circle.001_DefaultMaterial_0"
    },
    {
      "children": [
        38
      ],
      "matrix": [
        100.0,
        0.0,
        0.0,
        0.0,
        -0.0,
        -1.331580541386046e-05,
        -99.99999999999912,
        0.0,
        0.0,
        99.99999999999912,
        -1.331580541386046e-05,
        0.0,
        -0.0004410743713378906,
        507.0616760253906,
        -5.9604644775390625e-05,
        1.0
      ],
      "name": "Cylinder.003"
    },
    {
      "mesh": 17,
      "name": "Cylinder.003_DefaultMaterial_0"
    }
  ],
  "samplers": [
    {
      "magFilter": 9729,
      "minFilter": 9987,
      "wrapS": 10497,
      "wrapT": 10497
    }
  ],
  "scene": 0,
  "scenes": [
    {
      "name": "Sketchfab_Scene",
      "nodes": [
        0
      ]
    }
  ],
  "textures": [
    {
      "sampler": 0,
      "source": 0
    },
    {
      "sampler": 0,
      "source": 1
    },
    {
      "sampler": 0,
      "source": 2
    },
    {
      "sampler": 0,
      "source": 3
    }
  ]
}
