{
  "accessors": [
    {
      "bufferView": 2,
      "componentType": 5126,
      "count": 33,
      "max": [
        7.539360046386719,
        7.5393500328063965,
        0.0
      ],
      "min": [
        -7.539360046386719,
        -7.539360046386719,
        0.0
      ],
      "type": "VEC3"
    },
    {
      "bufferView": 2,
      "byteOffset": 396,
      "componentType": 5126,
      "count": 33,
      "max": [
        -0.0,
        0.0,
        1.0
      ],
      "min": [
        -0.0,
        0.0,
        1.0
      ],
      "type": "VEC3"
    },
    {
      "bufferView": 1,
      "componentType": 5126,
      "count": 33,
      "max": [
        0.8504700064659119,
        0.7717300057411194
      ],
      "min": [
        0.08308999985456467,
        0.004339999984949827
      ],
      "type": "VEC2"
    },
    {
      "bufferView": 0,
      "componentType": 5125,
      "count": 96,
      "type": "SCALAR"
    },
    {
      "bufferView": 2,
      "byteOffset": 792,
      "componentType": 5126,
      "count": 65532,
      "max": [
        4.3680500984191895,
        5.8287200927734375,
        2.6241300106048584
      ],
      "min": [
        -5.2350897789001465,
        -6.597859859466553,
        -6.36637020111084
      ],
      "type": "VEC3"
    },
    {
      "bufferView": 2,
      "byteOffset": 787176,
      "componentType": 5126,
      "count": 65532,
      "max": [
        1.0,
        1.0,
        1.0
      ],
      "min": [
        -1.0,
        -1.0,
        -1.0
      ],
      "type": "VEC3"
    },
    {
      "bufferView": 3,
      "componentType": 5126,
      "count": 65532,
      "max": [
        1.0,
        1.0,
        0.9999962449073792,
        1.0
      ],
      "min": [
        -1.0,
        -1.0,
        -0.9999991059303284,
        -1.0
      ],
      "type": "VEC4"
    },
    {
      "bufferView": 1,
      "byteOffset": 264,
      "componentType": 5126,
      "count": 65532,
      "max": [
        0.9972500205039978,
        0.998199999332428
      ],
      "min": [
        0.003599999938160181,
        0.0025599999353289604
      ],
      "type": "VEC2"
    },
    {
      "bufferView": 0,
      "byteOffset": 384,
      "componentType": 5125,
      "count": 315552,
      "type": "SCALAR"
    },
    {
      "bufferView": 2,
      "byteOffset": 1573560,
      "componentType": 5126,
      "count": 40862,
      "max": [
        5.380410194396973,
        5.58588981628418,
        2.6241300106048584
      ],
      "min": [
        -5.223899841308594,
        -6.586750030517578,
        -6.672910213470459
      ],
      "type": "VEC3"
    },
    {
      "bufferView": 2,
      "byteOffset": 2063904,
      "componentType": 5126,
      "count": 40862,
      "max": [
        1.0,
        1.0,
        1.0
      ],
      "min": [
        -1.0,
        -0.99997478723526,
        -1.0
      ],
      "type": "VEC3"
    },
    {
      "bufferView": 3,
      "byteOffset": 1048512,
      "componentType": 5126,
      "count": 40862,
      "max": [
        1.0,
        1.0,
        0.999981701374054,
        1.0
      ],
      "min": [
        -1.0,
        -1.0,
        -0.9998915195465088,
        -1.0
      ],
      "type": "VEC4"
    },
    {
      "bufferView": 1,
      "byteOffset": 524520,
      "componentType": 5126,
      "count": 40862,
      "max": [
        0.9987800121307373,
        0.9981399774551392
      ],
      "min": [
        0.003980000037699938,
        0.022579999640583992
      ],
      "type": "VEC2"
    },
    {
      "bufferView": 0,
      "byteOffset": 1262592,
      "componentType": 5125,
      "count": 180864,
      "type": "SCALAR"
    }
  ],
  "asset": {
    "extras": {
      "author": "Jonas Prunskus (https://sketchfab.com/JPrun)",
      "license": "CC-BY-4.0 (http://creativecommons.org/licenses/by/4.0/)",
      "source": "https://sketchfab.com/3d-models/flamethrower-drone-6bc6e70b2c6b467d95f4d7e1756e116f",
      "title": "Flamethrower Drone"
    },
    "generator": "Sketchfab-12.65.0",
    "version": "2.0"
  },
  "bufferViews": [
    {
      "buffer": 0,
      "byteLength": 1986048,
      "name": "floatBufferViews",
      "target": 34963
    },
    {
      "buffer": 0,
      "byteLength": 851416,
      "byteOffset": 1986048,
      "byteStride": 8,
      "name": "floatBufferViews",
      "target": 34962
    },
    {
      "buffer": 0,
      "byteLength": 2554248,
      "byteOffset": 2837464,
      "byteStride": 12,
      "name": "floatBufferViews",
      "target": 34962
    },
    {
      "buffer": 0,
      "byteLength": 1702304,
      "byteOffset": 5391712,
      "byteStride": 16,
      "name": "floatBufferViews",
      "target": 34962
    }
  ],
  "buffers": [
    {
      "byteLength": 7094016,
      "uri": "scene.bin"
    }
  ],
  "images": [
    {
      "uri": "textures/Body_baseColor.png"
    },
    {
      "uri": "textures/Body_metallicRoughness.png"
    },
    {
      "uri": "textures/Body_normal.png"
    },
    {
      "uri": "textures/Ground_Plane_baseColor.png"
    }
  ],
  "materials": [
    {
      "doubleSided": true,
      "name": "Body",
      "normalTexture": {
        "index": 2
      },
      "pbrMetallicRoughness": {
        "baseColorTexture": {
          "index": 0
        },
        "metallicRoughnessTexture": {
          "index": 1
        }
      }
    },
    {
      "alphaMode": "BLEND",
      "doubleSided": true,
      "name": "Ground_Plane",
      "pbrMetallicRoughness": {
        "baseColorTexture": {
          "index": 3
        },
        "metallicFactor": 0.0,
        "roughnessFactor": 0.0
      }
    }
  ],
  "meshes": [
    {
      "name": "Ground Plane_0",
      "primitives": [
        {
          "attributes": {
            "NORMAL": 1,
            "POSITION": 0,
            "TEXCOORD_0": 2
          },
          "indices": 3,
          "material": 1,
          "mode": 4
        }
      ]
    },
    {
      "name": "Body_0",
      "primitives": [
        {
          "attributes": {
            "NORMAL": 5,
            "POSITION": 4,
            "TANGENT": 6,
            "TEXCOORD_0": 7
          },
          "indices": 8,
          "material": 0,
          "mode": 4
        }
      ]
    },
    {
      "name": "Body_0",
      "primitives": [
        {
          "attributes": {
            "NORMAL": 10,
            "POSITION": 9,
            "TANGENT": 11,
            "TEXCOORD_0": 12
          },
          "indices": 13,
          "material": 0,
          "mode": 4
        }
      ]
    }
  ],
  "nodes": [
    {
      "children": [
        1
      ],
      "matrix": [
        1.0,
        0.0,
        0.0,
        0.0,
        0.0,
        2.220446049250313e-16,
        -1.0,
        0.0,
        0.0,
        1.0,
        2.220446049250313e-16,
        0.0,
        0.0,
        0.0,
        0.0,
        1.0
      ],
      "name": "Sketchfab_model"
    },
    {
      "children": [
        2,
        4
      ],
      "name": "Root"
    },
    {
      "children": [
        3
      ],
      "matrix": [
        1.0,
        0.0,
        0.0,
        0.0,
        0.0,
        1.0,
        0.0,
        0.0,
        0.0,
        0.0,
        1.0,
        0.0,
        0.0,
        -1.4139599999999997,
        -3.21649,
        1.0
      ],
      "name": "Ground Plane"
    },
    {
      "mesh": 0,
      "name": "Ground Plane_0"
    },
    {
      "children": [
        5,
        6
      ],
      "matrix": [
        1.0,
        0.0,
        0.0,
        0.0,
        0.0,
        0.92953,
        -0.36874,
        0.0,
        0.0,
        0.36874,
        0.92953,
        0.0,
        0.0,
        -0.6036800000000001,
        1.8191899999999999,
        1.0
      ],
      "name": "Body"
    },
    {
      "mesh": 1,
      "name": "Body_0"
    },
    {
      "mesh": 2,
      "name": "Body_0"
    }
  ],
  "samplers": [
    {
      "magFilter": 9729,
      "minFilter": 9987,
      "wrapS": 10497,
      "wrapT": 10497
    }
  ],
  "scene": 0,
  "scenes": [
    {
      "name": "Sketchfab_Scene",
      "nodes": [
        0
      ]
    }
  ],
  "textures": [
    {
      "sampler": 0,
      "source": 0
    },
    {
      "sampler": 0,
      "source": 1
    },
    {
      "sampler": 0,
      "source": 2
    },
    {
      "sampler": 0,
      "source": 3
    }
  ]
}
