{
  "accessors": [
    {
      "bufferView": 2,
      "componentType": 5126,
      "count": 65,
      "max": [
        0.6376577615737915,
        0.6376577615737915,
        1.203628420829773
      ],
      "min": [
        -0.6376578211784363,
        -0.6376577615737915,
        1.2036278247833252
      ],
      "type": "VEC3"
    },
    {
      "bufferView": 2,
      "byteOffset": 780,
      "componentType": 5126,
      "count": 65,
      "max": [
        1.4957131497794762e-06,
        9.347435820927785e-07,
        -1.0
      ],
      "min": [
        -1.4957130360926385e-06,
        -9.347436389361974e-07,
        -1.0
      ],
      "type": "VEC3"
    },
    {
      "bufferView": 1,
      "componentType": 5126,
      "count": 65,
      "max": [
        0.9270831942558289,
        0.8774958848953247
      ],
      "min": [
        0.6875942945480347,
        0.6494476199150085
      ],
      "type": "VEC2"
    },
    {
      "bufferView": 0,
      "componentType": 5125,
      "count": 192,
      "type": "SCALAR"
    },
    {
      "bufferView": 2,
      "byteOffset": 1560,
      "componentType": 5126,
      "count": 2169,
      "max": [
        1.064934253692627,
        1.0649341344833374,
        1.2036279439926147
      ],
      "min": [
        -1.0649341344833374,
        -1.0649341344833374,
        0.016929367557168007
      ],
      "type": "VEC3"
    },
    {
      "bufferView": 2,
      "byteOffset": 27588,
      "componentType": 5126,
      "count": 2169,
      "max": [
        0.9938294291496277,
        0.9938294291496277,
        1.0
      ],
      "min": [
        -0.9938294887542725,
        -0.9938293695449829,
        -1.0
      ],
      "type": "VEC3"
    },
    {
      "bufferView": 3,
      "componentType": 5126,
      "count": 2169,
      "max": [
        0.8929930329322815,
        0.9075583815574646,
        0.8757427334785461,
        1.0
      ],
      "min": [
        -0.9172994494438171,
        -0.999053955078125,
        -0.9938289523124695,
        1.0
      ],
      "type": "VEC4"
    },
    {
      "bufferView": 1,
      "byteOffset": 520,
      "componentType": 5126,
      "count": 2169,
      "max": [
        1.0,
        0.9990421533584595
      ],
      "min": [
        0.0,
        0.0
      ],
      "type": "VEC2"
    },
    {
      "bufferView": 0,
      "byteOffset": 768,
      "componentType": 5125,
      "count": 8640,
      "type": "SCALAR"
    },
    {
      "bufferView": 2,
      "byteOffset": 53616,
      "componentType": 5126,
      "count": 392,
      "max": [
        0.9935951232910156,
        0.9935951232910156,
        0.02162771113216877
      ],
      "min": [
        -0.9935951232910156,
        -0.9935951232910156,
        0.0
      ],
      "type": "VEC3"
    },
    {
      "bufferView": 2,
      "byteOffset": 58320,
      "componentType": 5126,
      "count": 392,
      "max": [
        0.9885318279266357,
        0.9885312914848328,
        0.9998100399971008
      ],
      "min": [
        -0.9885318279266357,
        -0.9885312914848328,
        0.1510114222764969
      ],
      "type": "VEC3"
    },
    {
      "bufferView": 3,
      "byteOffset": 34704,
      "componentType": 5126,
      "count": 392,
      "max": [
        0.7713017463684082,
        0.9802772402763367,
        0.653580904006958,
        1.0
      ],
      "min": [
        -0.7558861374855042,
        -0.7820079326629639,
        -0.9885249137878418,
        1.0
      ],
      "type": "VEC4"
    },
    {
      "bufferView": 1,
      "byteOffset": 17872,
      "componentType": 5126,
      "count": 392,
      "max": [
        0.9731043577194214,
        0.8764688968658447
      ],
      "min": [
        0.3892659544944763,
        0.0
      ],
      "type": "VEC2"
    },
    {
      "bufferView": 0,
      "byteOffset": 35328,
      "componentType": 5125,
      "count": 1536,
      "type": "SCALAR"
    },
    {
      "bufferView": 2,
      "byteOffset": 63024,
      "componentType": 5126,
      "count": 204,
      "max": [
        1.0756347179412842,
        1.0756348371505737,
        0.9568555355072021
      ],
      "min": [
        -1.0756347179412842,
        -1.0756347179412842,
        0.2467721849679947
      ],
      "type": "VEC3"
    },
    {
      "bufferView": 2,
      "byteOffset": 65472,
      "componentType": 5126,
      "count": 204,
      "max": [
        1.0,
        1.0,
        0.11092004925012589
      ],
      "min": [
        -1.0,
        -1.0,
        -0.11091996729373932
      ],
      "type": "VEC3"
    },
    {
      "bufferView": 1,
      "byteOffset": 21008,
      "componentType": 5126,
      "count": 204,
      "max": [
        0.9314011931419373,
        1.0
      ],
      "min": [
        0.026771945878863335,
        0.0
      ],
      "type": "VEC2"
    },
    {
      "bufferView": 0,
      "byteOffset": 41472,
      "componentType": 5125,
      "count": 768,
      "type": "SCALAR"
    },
    {
      "bufferView": 2,
      "byteOffset": 67920,
      "componentType": 5126,
      "count": 66,
      "max": [
        1.0,
        1.0,
        1.0
      ],
      "min": [
        -1.0,
        -1.0,
        -1.0
      ],
      "type": "VEC3"
    },
    {
      "bufferView": 2,
      "byteOffset": 68712,
      "componentType": 5126,
      "count": 66,
      "max": [
        1.0,
        1.0,
        0.0
      ],
      "min": [
        -1.0,
        -1.0,
        0.0
      ],
      "type": "VEC3"
    },
    {
      "bufferView": 1,
      "byteOffset": 22640,
      "componentType": 5126,
      "count": 66,
      "max": [
        0.7541512846946716,
        1.9127576351165771
      ],
      "min": [
        0.2531217336654663,
        -0.9127576351165771
      ],
      "type": "VEC2"
    },
    {
      "bufferView": 1,
      "byteOffset": 23168,
      "componentType": 5126,
      "count": 66,
      "max": [
        0.7541512846946716,
        1.9127576351165771
      ],
      "min": [
        0.2531217336654663,
        -0.9127576351165771
      ],
      "type": "VEC2"
    },
    {
      "bufferView": 0,
      "byteOffset": 44544,
      "componentType": 5125,
      "count": 192,
      "type": "SCALAR"
    }
  ],
  "asset": {
    "extras": {
      "author": "dylanheyes (https://sketchfab.com/dylanheyes)",
      "license": "CC-BY-4.0 (http://creativecommons.org/licenses/by/4.0/)",
      "source": "https://sketchfab.com/3d-models/space-dome-showcase-5fda4e11a13e4b72bfe230edbd5bdbf9",
      "title": "Space Dome Showcase"
    },
    "generator": "Sketchfab-14.64.0",
    "version": "2.0"
  },
  "bufferViews": [
    {
      "buffer": 0,
      "byteLength": 45312,
      "name": "floatBufferViews",
      "target": 34963
    },
    {
      "buffer": 0,
      "byteLength": 23696,
      "byteOffset": 45312,
      "byteStride": 8,
      "name": "floatBufferViews",
      "target": 34962
    },
    {
      "buffer": 0,
      "byteLength": 69504,
      "byteOffset": 69008,
      "byteStride": 12,
      "name": "floatBufferViews",
      "target": 34962
    },
    {
      "buffer": 0,
      "byteLength": 40976,
      "byteOffset": 138512,
      "byteStride": 16,
      "name": "floatBufferViews",
      "target": 34962
    }
  ],
  "buffers": [
    {
      "byteLength": 179488,
      "uri": "scene.bin"
    }
  ],
  "extensionsUsed": [
    "KHR_materials_emissive_strength",
    "KHR_texture_transform",
    "KHR_materials_clearcoat"
  ],
  "images": [
    {
      "uri": "textures/Metal_normal.png"
    },
    {
      "uri": "textures/Glass_baseColor.png"
    },
    {
      "uri": "textures/Glass_metallicRoughness.png"
    },
    {
      "uri": "textures/Material.004_baseColor.jpeg"
    }
  ],
  "materials": [
    {
      "emissiveFactor": [
        1.0,
        0.443106,
        0.239977
      ],
      "extensions": {
        "KHR_materials_emissive_strength": {
          "emissiveStrength": 7.1
        }
      },
      "name": "Light",
      "pbrMetallicRoughness": {
        "metallicFactor": 0.0,
        "roughnessFactor": 0.7763932022500211
      }
    },
    {
      "extensions": {
        "KHR_materials_clearcoat": {
          "clearcoatFactor": 1.0,
          "clearcoatRoughnessFactor": 0.04
        }
      },
      "name": "Metal",
      "normalTexture": {
        "extensions": {
          "KHR_texture_transform": {
            "scale": [
              5.994961846555962,
              5.994961846555962
            ]
          }
        },
        "index": 0,
        "scale": 0.0001
      },
      "pbrMetallicRoughness": {
        "baseColorFactor": [
          0.3906051450144493,
          0.3906051450144493,
          0.3906051450144493,
          1.0
        ],
        "roughnessFactor": 0.0
      }
    },
    {
      "name": "material",
      "normalTexture": {
        "extensions": {
          "KHR_texture_transform": {
            "scale": [
              11.370377418251817,
              11.370377418251817
            ]
          }
        },
        "index": 0,
        "scale": 0.01
      },
      "pbrMetallicRoughness": {
        "baseColorFactor": [
          0.11197265650821617,
          0.08021322546183529,
          0.13975163168790034,
          1.0
        ],
        "metallicFactor": 0.657,
        "roughnessFactor": 0.34280850117898876
      }
    },
    {
      "alphaCutoff": 1.0,
      "alphaMode": "MASK",
      "extensions": {
        "KHR_materials_clearcoat": {
          "clearcoatFactor": 1.0,
          "clearcoatRoughnessFactor": 0.04
        }
      },
      "name": "Glass",
      "pbrMetallicRoughness": {
        "baseColorFactor": [
          0.7,
          0.7,
          0.7,
          1.0
        ],
        "baseColorTexture": {
          "index": 1
        },
        "metallicFactor": 0.0,
        "metallicRoughnessTexture": {
          "index": 2
        }
      }
    },
    {
      "emissiveFactor": [
        1.0,
        1.0,
        1.0
      ],
      "emissiveTexture": {
        "extensions": {
          "KHR_texture_transform": {
            "scale": [
              4.905060408362465,
              0.6428064499341739
            ]
          }
        },
        "index": 3
      },
      "extensions": {
        "KHR_materials_clearcoat": {
          "clearcoatFactor": 0.12755822621119964,
          "clearcoatRoughnessFactor": 0.04
        },
        "KHR_materials_emissive_strength": {
          "emissiveStrength": 10.0
        }
      },
      "name": "Material.004",
      "pbrMetallicRoughness": {
        "baseColorFactor": [
          0.0,
          0.0,
          0.0,
          1.0
        ],
        "baseColorTexture": {
          "extensions": {
            "KHR_texture_transform": {
              "scale": [
                -0.05607071854633827,
                -0.05607071854633827
              ]
            }
          },
          "index": 3
        },
        "metallicFactor": 0.0,
        "roughnessFactor": 0.8211145618000169
      }
    }
  ],
  "meshes": [
    {
      "name": "Dome_Light_0",
      "primitives": [
        {
          "attributes": {
            "NORMAL": 1,
            "POSITION": 0,
            "TEXCOORD_0": 2
          },
          "indices": 3,
          "material": 0,
          "mode": 4
        }
      ]
    },
    {
      "name": "Dome_Metal_0",
      "primitives": [
        {
          "attributes": {
            "NORMAL": 5,
            "POSITION": 4,
            "TANGENT": 6,
            "TEXCOORD_0": 7
          },
          "indices": 8,
          "material": 1,
          "mode": 4
        }
      ]
    },
    {
      "name": "Dome_Rim_0",
      "primitives": [
        {
          "attributes": {
            "NORMAL": 10,
            "POSITION": 9,
            "TANGENT": 11,
            "TEXCOORD_0": 12
          },
          "indices": 13,
          "material": 2,
          "mode": 4
        }
      ]
    },
    {
      "name": "Dome_Glass_0",
      "primitives": [
        {
          "attributes": {
            "NORMAL": 15,
            "POSITION": 14,
            "TEXCOORD_0": 16
          },
          "indices": 17,
          "material": 3,
          "mode": 4
        }
      ]
    },
    {
      "name": "Background_Material.004_0",
      "primitives": [
        {
          "attributes": {
            "NORMAL": 19,
            "POSITION": 18,
            "TEXCOORD_0": 20,
            "TEXCOORD_1": 21
          },
          "indices": 22,
          "material": 4,
          "mode": 4
        }
      ]
    }
  ],
  "nodes": [
    {
      "children": [
        1
      ],
      "matrix": [
        2.174255847930908,
        0.0,
        0.0,
        0.0,
        0.0,
        4.827817807597575e-16,
        -2.174255847930908,
        0.0,
        0.0,
        2.174255847930908,
        4.827817807597575e-16,
        0.0,
        0.0,
        0.0,
        0.0,
        1.0
      ],
      "name": "Sketchfab_model"
    },
    {
      "children": [
        2
      ],
      "matrix": [
        0.009999999776482582,
        0.0,
        0.0,
        0.0,
        0.0,
        0.0,
        0.009999999776482582,
        0.0,
        0.0,
        -0.009999999776482582,
        0.0,
        0.0,
        0.0,
        0.0,
        0.0,
        1.0
      ],
      "name": "Dome Showcase.fbx"
    },
    {
      "children": [
        3,
        8
      ],
      "name": "RootNode"
    },
    {
      "children": [
        4,
        5,
        6,
        7
      ],
      "matrix": [
        130.0,
        0.0,
        0.0,
        0.0,
        0.0,
        -2.1179688320938084e-05,
        -129.9999999999983,
        0.0,
        0.0,
        129.9999999999983,
        -2.1179688320938084e-05,
        0.0,
        1.210719347000122e-06,
        0.0,
        -1.4901161193847656e-06,
        1.0
      ],
      "name": "Dome"
    },
    {
      "mesh": 0,
      "name": "Dome_Light_0"
    },
    {
      "mesh": 1,
      "name": "Dome_Metal_0"
    },
    {
      "mesh": 2,
      "name": "Dome_Rim_0"
    },
    {
      "mesh": 3,
      "name": "Dome_Glass_0"
    },
    {
      "children": [
        9
      ],
      "matrix": [
        250.0,
        0.0,
        0.0,
        0.0,
        0.0,
        -4.073016984795785e-05,
        -249.9999999999967,
        0.0,
        0.0,
        249.9999999999967,
        -4.073016984795785e-05,
        0.0,
        0.0,
        0.0,
        0.0,
        1.0
      ],
      "name": "Background"
    },
    {
      "mesh": 4,
      "name": "Background_Material.004_0"
    }
  ],
  "samplers": [
    {
      "magFilter": 9729,
      "minFilter": 9987,
      "wrapS": 10497,
      "wrapT": 10497
    }
  ],
  "scene": 0,
  "scenes": [
    {
      "name": "Sketchfab_Scene",
      "nodes": [
        0
      ]
    }
  ],
  "textures": [
    {
      "sampler": 0,
      "source": 0
    },
    {
      "sampler": 0,
      "source": 1
    },
    {
      "sampler": 0,
      "source": 2
    },
    {
      "sampler": 0,
      "source": 3
    }
  ]
}
